<svg xmlns="http://www.w3.org/2000/svg" width="1024" height="1024">
  <path d="M0 0h1024v1024H0z" fill="#F8F0E6"/>
  <path d="m181.287 125.866 3.266-.014h3.585l3.81-.01q5.24-.014 10.479-.017 5.65-.007 11.299-.022c9.097-.02 18.195-.03 27.292-.039l12.857-.015a62356 62356 0 0 1 53.842-.044l2.784-.002c14.882-.008 29.763-.033 44.645-.066q22.925-.049 45.85-.054c8.58-.002 17.159-.01 25.738-.036q10.96-.034 21.922-.02c3.726.004 7.452.002 11.178-.017 4.046-.021 8.092-.01 12.14.002l3.537-.033c12.092.095 22.644 3.988 31.462 12.404 7.795 8.44 9.954 16.936 12.027 28.117l.297-2.055c2.119-13.19 6.446-22.195 16.973-30.8 8.957-6.354 17.46-7.59 28.28-7.533l3.76-.016c3.426-.012 6.85-.01 10.274-.003 3.702.005 7.403-.008 11.105-.018a7155 7155 0 0 1 21.73-.013q8.835.006 17.67-.002l2.543-.003 5.116-.004c15.98-.014 31.96-.009 47.94.003 14.607.01 29.213-.003 43.82-.027q22.518-.037 45.037-.027 12.634.007 25.267-.017 10.755-.022 21.51.002c3.656.009 7.31.011 10.966-.004 3.97-.017 7.939-.002 11.909.016l3.468-.03c10.304.095 20.34 2.626 27.886 10.058 5.879 6.434 9.57 13.53 9.58 22.314l.012 3.717q0 2.053-.003 4.105l.01 4.345q.011 5.983.01 11.967.005 6.45.016 12.897.02 14.108.024 28.215.005 8.808.012 17.615.019 24.382.026 48.763v3.154l.003 12.681q.007 25.482.045 50.964.035 26.155.037 52.312-.001 14.687.025 29.375.023 12.51.012 25.018-.008 6.381.011 12.762.019 5.847 0 11.692a556 556 0 0 0 .01 4.222c.069 11.917-1.582 21.962-9.819 31.043L872 525l-2.125 2.063c-8.298 5.592-16.902 6.52-26.678 6.438l-3.771.017c-3.424.011-6.848.005-10.272-.01-3.704-.01-7.408.001-11.112.01-7.244.014-14.488.006-21.732-.009-8.443-.016-16.886-.013-25.329-.01-15.066.006-30.133-.008-45.2-.032q-21.91-.036-43.823-.021a29434 29434 0 0 1-52.87-.006l-2.532-.002q-8.82-.006-17.641.001-10.752.009-21.504-.02a2258 2258 0 0 0-10.964-.008c-3.966.009-7.932-.006-11.898-.023l-3.482.018c-11.534-.091-19.494-3.079-28.067-10.906-13.663-14.264-13.403-34.923-14-53.5l-.12 1.842c-2.725 39.961-2.725 39.961-14.43 51.72-8.524 7.357-16.62 10.55-27.936 10.572l-3.246.014h-3.532l-3.779.01q-5.181.014-10.362.017-5.593.007-11.185.022c-8.999.02-17.997.03-26.996.039l-12.723.015a61128 61128 0 0 1-53.277.044l-2.754.002a26012 26012 0 0 0-44.169.066q-22.687.049-45.376.054c-8.488.002-16.977.01-25.465.036q-10.844.034-21.687.02c-3.685-.004-7.37-.002-11.056.017-4.002.021-8.005.01-12.008-.002l-3.498.033c-9.44-.075-18.718-1.912-25.772-8.626-9.54-11.097-10.93-21.017-10.91-35.178l-.018-4.363c-.016-3.983-.02-7.967-.021-11.95-.004-4.302-.019-8.603-.032-12.905-.027-9.398-.04-18.797-.048-28.196q-.01-8.808-.023-17.615-.04-24.4-.052-48.8l-.001-3.152-.002-3.16-.002-6.338-.002-3.176c-.008-16.982-.043-33.964-.09-50.947q-.07-26.17-.074-52.343c-.002-9.791-.013-19.582-.05-29.374q-.047-12.504-.024-25.01c.008-4.25.006-8.501-.022-12.752-.026-3.897-.023-7.794.001-11.692q.006-2.105-.02-4.21c-.131-11.269 2.44-20.122 10.011-28.671 6.457-5.882 14.356-9.18 23.037-9.197" fill="#FCF8F2"/>
  <path d="m181.287 125.866 3.266-.014h3.585l3.81-.01q5.24-.014 10.479-.017 5.65-.007 11.299-.022c9.097-.02 18.195-.03 27.292-.039l12.857-.015a62356 62356 0 0 1 53.842-.044l2.784-.002c14.882-.008 29.763-.033 44.645-.066q22.925-.049 45.85-.054c8.58-.002 17.159-.01 25.738-.036q10.96-.034 21.922-.02c3.726.004 7.452.002 11.178-.017 4.046-.021 8.092-.01 12.14.002l3.537-.033c12.092.095 22.644 3.988 31.462 12.404 7.795 8.44 9.954 16.936 12.027 28.117l.297-2.055c2.119-13.19 6.446-22.195 16.973-30.8 8.957-6.354 17.46-7.59 28.28-7.533l3.76-.016c3.426-.012 6.85-.01 10.274-.003 3.702.005 7.403-.008 11.105-.018a7155 7155 0 0 1 21.73-.013q8.835.006 17.67-.002l2.543-.003 5.116-.004c15.98-.014 31.96-.009 47.94.003 14.607.01 29.213-.003 43.82-.027q22.518-.037 45.037-.027 12.634.007 25.267-.017 10.755-.022 21.51.002c3.656.009 7.31.011 10.966-.004 3.97-.017 7.939-.002 11.909.016l3.468-.03c10.304.095 20.34 2.626 27.886 10.058 5.879 6.434 9.57 13.53 9.58 22.314l.012 3.717q0 2.053-.003 4.105l.01 4.345q.011 5.983.01 11.967.005 6.45.016 12.897.02 14.108.024 28.215.005 8.808.012 17.615.019 24.382.026 48.763v3.154l.003 12.681q.007 25.482.045 50.964.035 26.155.037 52.312-.001 14.687.025 29.375.023 12.51.012 25.018-.008 6.381.011 12.762.019 5.847 0 11.692a556 556 0 0 0 .01 4.222c.069 11.917-1.582 21.962-9.819 31.043L872 525l-2.125 2.063c-8.298 5.592-16.902 6.52-26.678 6.438l-3.771.017c-3.424.011-6.848.005-10.272-.01-3.704-.01-7.408.001-11.112.01-7.244.014-14.488.006-21.732-.009-8.443-.016-16.886-.013-25.329-.01-15.066.006-30.133-.008-45.2-.032q-21.91-.036-43.823-.021a29434 29434 0 0 1-52.87-.006l-2.532-.002q-8.82-.006-17.641.001-10.752.009-21.504-.02a2258 2258 0 0 0-10.964-.008c-3.966.009-7.932-.006-11.898-.023l-3.482.018c-11.534-.091-19.494-3.079-28.067-10.906-13.663-14.264-13.403-34.923-14-53.5l-.12 1.842c-2.725 39.961-2.725 39.961-14.43 51.72-8.524 7.357-16.62 10.55-27.936 10.572l-3.246.014h-3.532l-3.779.01q-5.181.014-10.362.017-5.593.007-11.185.022c-8.999.02-17.997.03-26.996.039l-12.723.015a61128 61128 0 0 1-53.277.044l-2.754.002a26012 26012 0 0 0-44.169.066q-22.687.049-45.376.054c-8.488.002-16.977.01-25.465.036q-10.844.034-21.687.02c-3.685-.004-7.37-.002-11.056.017-4.002.021-8.005.01-12.008-.002l-3.498.033c-9.44-.075-18.718-1.912-25.772-8.626-9.54-11.097-10.93-21.017-10.91-35.178l-.018-4.363c-.016-3.983-.02-7.967-.021-11.95-.004-4.302-.019-8.603-.032-12.905-.027-9.398-.04-18.797-.048-28.196q-.01-8.808-.023-17.615-.04-24.4-.052-48.8l-.001-3.152-.002-3.16-.002-6.338-.002-3.176c-.008-16.982-.043-33.964-.09-50.947q-.07-26.17-.074-52.343c-.002-9.791-.013-19.582-.05-29.374q-.047-12.504-.024-25.01c.008-4.25.006-8.501-.022-12.752-.026-3.897-.023-7.794.001-11.692q.006-2.105-.02-4.21c-.131-11.269 2.44-20.122 10.011-28.671 6.457-5.882 14.356-9.18 23.037-9.197m11.15 25.384c-5.62 7.834-5.874 16.918-5.825 26.23l-.016 3.702c-.012 3.365-.01 6.73-.003 10.096.005 3.64-.008 7.279-.018 10.918-.017 7.12-.018 14.24-.013 21.36a10711 10711 0 0 1-.005 19.868l-.004 5.03c-.014 15.709-.009 31.418.003 47.127.01 14.357-.003 28.714-.027 43.071q-.037 22.14-.027 44.279c.003 8.28 0 16.559-.017 24.838q-.022 10.572.002 21.142c.009 3.593.011 7.185-.004 10.777-.017 3.902-.002 7.803.016 11.705l-.03 3.408c.084 9.016 1.615 17.402 7.906 24.199 6.374 6.041 12.56 6.438 20.94 6.401l3.47.02c3.839.02 7.677.017 11.517.015q4.126.012 8.254.03c6.7.025 13.401.033 20.102.035q8.172.003 16.346.017a25009 25009 0 0 0 48.9.038h2.528c13.51-.002 27.021.027 40.531.07q20.824.064 41.648.06c7.79 0 15.58.008 23.37.04q9.95.042 19.901.014 5.072-.017 10.145.016c3.675.023 7.348.009 11.023-.014l3.203.046c7.707-.106 13.507-2.21 19.747-6.788 8.324-9.37 9.447-19.439 9.187-31.562L505 435h-32l2 5c.193 3.732.183 6.45-1 10h-2v2c-11.82.86-11.82.86-15.625-2.25-3.827-4.43-4.85-7.593-4.68-13.375.63-4.914 2.355-8.765 6.211-11.95 4.686-3.05 8.69-4.535 14.304-4.579l2.523-.026 2.742-.013 2.909-.025q4.765-.035 9.53-.055l3.294-.017q8.635-.039 17.27-.06 7.13-.02 14.263-.082c5.75-.05 11.498-.074 17.248-.081q3.277-.01 6.556-.046a721 721 0 0 1 9.204-.024l2.705-.05c7.23.07 13.863 2.19 19.24 7.217 3.773 4.422 4.665 7.372 4.583 13.03-.468 4.031-1.81 6.14-4.277 9.386-4.684 3.3-8.458 3.616-14 3-2.938-1.437-2.938-1.437-5-4-1.435-5.145-1.417-8.165 1-13h-29c-.116 6.048-.215 12.092-.275 18.14a679 679 0 0 1-.102 6.156c-.286 13.805-.265 24.801 8.564 36.142 6.246 6.317 13.28 9.11 22.098 9.23l3.063-.033 3.333.024c3.663.02 7.326.004 10.989-.012q3.952.01 7.906.027c6.402.022 12.803.017 19.205.002q7.807-.015 15.615-.007l2.25.002 4.525.005c14.125.015 28.25-.002 42.376-.029q18.159-.031 36.319.005a14112 14112 0 0 0 46.738.017l2.24-.002c5.195-.005 10.391.003 15.587.014q9.504.023 19.009-.016 4.844-.021 9.689-.002c3.508.014 7.015-.003 10.523-.028l3.063.034c8.735-.12 15.696-3.002 22.16-8.919 7.066-7.762 7.71-15.874 7.646-26.027l.024-4c.02-3.642.016-7.285.007-10.928-.005-3.937.013-7.874.028-11.81.026-7.705.03-15.41.025-23.114q-.005-9.395.008-18.79l.004-2.704.007-5.44c.022-16.99.017-33.98.005-50.97-.01-15.536.012-31.07.05-46.606q.06-23.945.048-47.889c-.004-8.957.001-17.914.03-26.872q.036-11.436.002-22.873c-.012-3.888-.014-7.776.01-11.664a766 766 0 0 0-.012-10.69c-.008-1.89.013-3.78.036-5.67-.1-7.909-1.645-13.563-6.793-19.703-8.092-6.774-15.466-8.3-25.797-8.26l-3.3-.012c-3.65-.01-7.3-.007-10.951-.003l-7.85-.015a8072 8072 0 0 0-19.113-.012q-7.77.002-15.54-.005l-2.236-.001-4.495-.004q-21.076-.013-42.153-.003c-12.846.006-25.692-.006-38.537-.025q-19.797-.03-39.593-.024-11.11.005-22.22-.014-10.449-.019-20.898.002-3.832.004-7.666-.009c-3.49-.01-6.982-.002-10.473.01l-3.056-.022c-9.923.076-17.804 2.558-25.122 9.397-6.344 7.149-7.296 14.074-7.125 23.375L533 184h-28l.25-8.375c.098-9.928-1.583-17.652-8.55-25.094-8.381-7.552-16.87-8.83-27.787-8.812l-3.359-.018c-3.709-.017-7.418-.02-11.127-.023l-7.984-.03c-7.227-.027-14.455-.04-21.682-.048q-6.776-.01-13.551-.023a26707 26707 0 0 0-39.982-.053l-2.431-.002-4.877-.002-2.443-.002c-13.06-.008-26.12-.043-39.181-.09q-20.138-.07-40.275-.074c-7.53-.002-15.062-.013-22.593-.05q-9.62-.046-19.24-.024a980 980 0 0 1-9.806-.022c-20.758-.511-20.758-.511-37.945 9.992" fill="#22464D"/>
  <path d="M204 671c4.545.909 6.523 1.692 10.297 4.07l3.12 1.947 3.333 2.108q3.494 2.185 6.992 4.363l1.805 1.128c7.443 4.643 14.986 9.12 22.53 13.597l2.978 1.775 2.609 1.548C260 703 260 703 261.845 704.567c2.557 1.7 3.926 1.81 6.97 1.818l2.902.03 3.135-.009 6.672.06 3.519.015c38.794.208 76.339 1.369 105.621 30.136.77.787 1.542 1.573 2.336 2.383l1.703 1.527C404.152 749.141 411.18 762.251 416 774v4h2l.645-1.672c4.583-7.873 14.407-13.74 22.23-18.015.605-.34 1.21-.678 1.835-1.027 4.224-2.187 7.568-2.792 12.29-2.286 2.655 2.383 3.762 4.048 4.625 7.5-.961 3.846-3.451 5.423-6.625 7.5a580 580 0 0 1-5.875 3.375c-8.47 4.87-15.674 10.121-19.125 19.625 0 3.463.664 5.29 2.125 8.375 1.915 1.973 1.915 1.973 5.438 2 3.498-.019 3.498-.019 5.437-2.375.273-2.107.273-2.107.313-4.437.406-4.282.406-4.282 2.812-6.688 3.789-1.153 6.073-.981 9.875.125 2.749 2.185 3.8 3.798 4.379 7.273.289 6.058-.818 10.787-4.379 15.727-5.395 5.395-10.811 8.121-18.437 8.438-5.457-.129-8.926-1.638-13.563-4.438l-.336 3.953c-.542 4.831-1.717 9.208-3.289 13.797l-.803 2.362c-6.491 18.422-19.985 40.034-37.657 49.549-3.21 2.075-3.21 2.075-3.624 5.56l.045 3.775-.013 2.032c-.01 2.138.017 4.272.052 6.41.024 2.133.04 4.265.03 6.398-.006 1.938.019 3.876.046 5.814-.538 3.996-1.595 5.553-4.451 8.35-4.804 3.391-11.216 2.41-16.844 2.426a338 338 0 0 0-6.248.111l-3.998.022-3.652.04c-4.184-.77-5.586-2.367-8.258-5.599-2.28-3.42-2.22-4.682-2.125-8.687l.055-3.012L331 908l-2.89.656c-11.393 2.304-22.656 2.68-34.235 2.719l-2.287.023c-11.17.09-21.655-1.123-32.588-3.398l.187 2.342c.359 5.184.428 8.726-3.062 12.783-5.15 5.2-11.288 4.238-18.19 4.335q-2.175.04-4.348.123c-11.423.433-11.423.433-15.905-1.671-2.939-2.737-3.596-5.1-4.016-9.061-.051-3.753.068-7.476.209-11.226.513-9.76.513-9.76-3.309-18.281-3.097-2.196-6.112-3.784-9.566-5.344-2.328-1.762-2.328-1.762-4.312-3.562l-1.899-1.708c-3.94-3.811-7.624-7.844-10.51-12.516-3.145-4.722-5.418-7.754-11.07-9.15-4.387-.39-8.752-.243-13.147-.064q-3.408.073-6.818.1c-2.044.024-4.087.09-6.13.158L144 855c-2.336-3.504-2.257-4.931-2.275-9.076l-.029-3.792q0-2.05.003-4.1l-.013-4.204q-.01-4.402-.002-8.806c.006-3.763-.01-7.526-.034-11.289-.015-2.892-.016-5.785-.013-8.678q0-2.081-.015-4.162c-.013-1.939-.004-3.878.006-5.817l-.002-3.344c.374-2.732.374-2.732 1.727-4.59 2.51-1.74 4.608-1.48 7.627-1.435l3.526.03c1.215.024 2.43.05 3.682.076l3.716.04q4.549.054 9.096.147l.363-3.629c1.2-9.515 6.047-17.758 11.637-25.371l2.102-2.977C195.617 739.461 195.617 739.461 203 737z" fill="#93B4A5"/>
  <path d="M736.179 659.185c2.453 2.445 2.327 3.797 2.34 7.225l.042 3.404-.015 3.736.031 3.932c.028 3.56.031 7.119.03 10.679.004 3.72.03 7.439.052 11.159.041 7.044.061 14.088.074 21.132.016 8.02.055 16.038.095 24.058q.121 24.744.172 49.49l2.369.93c2.42.985 4.578 2.088 6.834 3.398l2.43 1.401 2.617 1.521q2.85 1.642 5.703 3.281l3.01 1.73c15.858 9.077 31.878 17.87 47.88 26.69 7.37 4.062 14.739 8.127 22.1 12.207q2.525 1.399 5.053 2.795a955 955 0 0 1 6.119 3.423q2.902 1.634 5.837 3.209l2.755 1.532 2.44 1.324C856 859 856 859 856.86 861.514c.208 3.666-1.303 5.135-3.547 7.986l-1.222 1.558c-23.664 29.617-54.632 49.305-92.53 54.261-34.487 3.787-69.705-2.95-97.802-24.085-5.149-4.17-9.961-8.667-14.758-13.234l-2.148-1.953c-23.292-21.865-36.842-55.309-38.243-86.852-.934-38.186 10.65-70.782 36.07-99.254C661.798 679.923 685.36 667.585 712 661l2.036-.505c16.969-4.125 16.969-4.125 22.143-1.31" fill="#21464E"/>
  <path d="M372.875 244.438A275 275 0 0 1 377 248l2.41 1.945C395.09 263.081 404.284 281.813 407 302c1.422 23.933-3.863 46.255-19.906 64.628C381.895 372.392 376.327 377.49 370 382l-2.215 1.61c-17.516 11.617-41.044 14.254-61.348 10.202C288.54 389.227 274.907 380.94 262 368l-1.871-1.836c-15.567-16.621-19.887-39.682-19.496-61.559.87-21.572 11.186-38.857 26.367-53.605l2.344-2.336c27.628-26.126 73.658-26.802 103.531-4.226" fill="#FBF8F3"/>
  <path d="M455 755c2.655 2.383 3.762 4.048 4.625 7.5-.961 3.846-3.451 5.423-6.625 7.5a580 580 0 0 1-5.875 3.375c-8.47 4.87-15.674 10.121-19.125 19.625 0 3.463.664 5.29 2.125 8.375 1.915 1.973 1.915 1.973 5.438 2 3.498-.019 3.498-.019 5.437-2.375.273-2.107.273-2.107.313-4.437.406-4.282.406-4.282 2.812-6.688 3.789-1.153 6.073-.981 9.875.125 2.749 2.185 3.8 3.798 4.379 7.273.289 6.058-.818 10.787-4.379 15.727-5.395 5.395-10.811 8.121-18.437 8.438-5.457-.129-8.926-1.638-13.563-4.438l-.336 3.953c-.542 4.831-1.717 9.208-3.289 13.797l-.803 2.362c-6.491 18.422-19.985 40.034-37.657 49.549-3.21 2.075-3.21 2.075-3.624 5.56l.045 3.775-.013 2.032c-.01 2.138.017 4.272.052 6.41.024 2.133.04 4.265.03 6.398-.006 1.938.019 3.876.046 5.814-.538 3.996-1.595 5.553-4.451 8.35-4.804 3.391-11.216 2.41-16.844 2.426a338 338 0 0 0-6.248.111l-3.998.022-3.652.04c-4.184-.77-5.586-2.367-8.258-5.599-2.28-3.42-2.22-4.682-2.125-8.687l.055-3.012L331 908l-2.89.656c-11.393 2.304-22.656 2.68-34.235 2.719l-2.287.023c-11.17.09-21.655-1.123-32.588-3.398l.187 2.342c.359 5.184.428 8.726-3.062 12.783-5.15 5.2-11.288 4.238-18.19 4.335q-2.175.04-4.348.123c-11.423.433-11.423.433-15.905-1.671-2.939-2.737-3.596-5.1-4.016-9.061-.051-3.753.068-7.476.209-11.226.513-9.76.513-9.76-3.309-18.281-3.097-2.196-6.112-3.784-9.566-5.344-2.328-1.762-2.328-1.762-4.312-3.562l-1.899-1.708c-3.94-3.811-7.624-7.844-10.51-12.516-3.145-4.722-5.418-7.754-11.07-9.15-4.387-.39-8.752-.243-13.147-.064q-3.408.073-6.818.1c-2.044.024-4.087.09-6.13.158L144 855c-2.341-3.512-2.253-4.938-2.259-9.092l-.019-3.802.012-4.11-.005-4.21q-.005-4.41.01-8.819c.012-3.772.005-7.544-.007-11.316q-.009-4.346 0-8.69a970 970 0 0 0-.005-4.174c-.005-1.941.004-3.883.014-5.824l.005-3.351C142 789 142 789 144 787c2.706-.227 2.706-.227 6.102-.195l3.307.015 4.216.055L171 787v52h13c4.515 2.257 5.545 3.904 8.25 8.063 9.733 14.476 22.005 25.31 37.75 32.937l3.348 1.738c31.352 15.903 73.43 17.164 106.683 6.44 23.966-8.265 46.654-23.203 58.152-46.583 5.316-11.765 8.613-22.652 9.092-35.564.584-14.84 3.536-23.61 14.725-34.031 8.81-7.762 20.754-18.185 33-17" fill="#22484E"/>
  <path d="M380.861 229.38c19.674 14.944 34.26 34.35 40.139 58.62l.533 2.16c1.551 6.863 1.815 13.507 1.78 20.528l-.015 3.477C422.97 337.849 414.565 360.141 399 378l-1.45 1.848c-14.81 18.63-38.573 28.66-61.55 32.152-29.428 2.6-54.937-5.476-77.613-24.152C240.652 372.535 227.304 349.358 224 326c-1.05-14.964-1.004-29.76 4-44l1.098-3.39c8.503-24.33 28.225-45.737 51.39-56.949 9.55-4.373 19.198-6.828 29.512-8.661l2.934-.578c23.388-3.218 48.818 3.015 67.927 16.958M265 253l-2.531 2.457c-16.142 16.615-22.276 36.242-21.989 59.065.75 22.706 10.354 43.231 26.72 59.025 19.061 16.696 41.088 22.473 66.035 21.641 9.642-.656 19.262-3.64 27.765-8.188l2.785-1.422c18.706-10.137 32.936-27.282 39.567-47.504 6.526-22.232 4.656-44.15-5.352-65.074-11.736-20.847-30.63-35.738-53.5-42.5-29.17-7.1-58.367 1.734-79.5 22.5" fill="#244A50"/>
  <path d="M753 659c6.538-.184 12.422.4 18.813 1.75l2.676.562c30.923 6.679 58.382 25.47 77.698 50.25l1.261 1.606c3.358 4.366 6.886 9.034 8.177 14.457-.95 3.613-3.672 5.32-6.625 7.375-3.234 1.52-3.234 1.52-6.75 2.813q-1.995.759-3.988 1.527l-2.104.808c-10.254 4.049-20.233 8.793-30.055 13.786-5.873 2.98-11.829 5.768-17.797 8.552-6.794 3.202-13.42 6.687-19.989 10.328-4.127 2.24-7.552 3.762-12.317 4.186v2c-3.123 1.85-5.38 2.294-9 2-1.619-1.619-1.126-3.387-1.127-5.624l-.009-3.03.007-3.352-.006-3.508q-.004-5.772.002-11.545l-.003-7.985q-.003-8.382.006-16.764.007-9.699-.002-19.398-.007-8.316-.003-16.632.003-4.97-.001-9.943-.003-5.543.007-11.084l-.007-3.345.009-3.039.001-2.65C752 661 752 661 753 659" fill="#95B3A4"/>
  <path d="m789.438 206.602 3.21-.012 3.352.035 3.352-.035 3.21.012 2.942.01c2.97.462 3.663 1.065 5.496 3.388.376 1.916.376 1.916.378 4.127l.023 2.559-.02 2.81.014 2.986c.012 3.317.003 6.633-.007 9.95l.016 7.115q.016 8.672.002 17.344a6595 6595 0 0 0-.003 16.115q0 2.036.003 4.07c.008 12.728-.002 25.456-.018 38.184q-.018 16.394.003 32.788a19104 19104 0 0 1 .01 42.103l-.001 2.015q-.003 7.041.009 14.082.013 9.469-.015 18.938-.006 3.485.004 6.968c.008 3.16-.002 6.318-.017 9.476l.02 2.818-.023 2.55-.002 2.212C811 451 811 451 808 453c-3.986.439-7.993.324-12 .313l-3.352.048-3.21.002-2.942.01c-2.977-.445-3.66-1.047-5.496-3.373-.376-1.908-.376-1.908-.378-4.109l-.023-2.546.02-2.797-.014-2.971c-.012-3.3-.003-6.6.007-9.901l-.016-7.08c-.014-6.422-.008-12.843.001-19.264q.006-6.012.002-12.023l-.002-2.015-.003-4.051c-.008-12.67.002-25.34.018-38.011q.018-16.316-.003-32.631a18925 18925 0 0 1-.009-43.916q.003-7.006-.009-14.012-.013-9.426.015-18.852.006-3.467-.004-6.934c-.008-3.145.002-6.29.017-9.435l-.02-2.797.023-2.546.002-2.201c.966-4.9 4.408-5.291 8.813-5.306" fill="#254950"/>
  <path d="m468.37 301.853 2.705-.022 2.96-.008 3.126-.02q5.128-.028 10.257-.041l3.539-.013q9.272-.03 18.545-.044a4262 4262 0 0 0 19.143-.085c4.91-.027 9.82-.035 14.73-.038q3.527-.008 7.055-.035c3.296-.025 6.591-.024 9.887-.017l2.93-.039c7.092.054 12.674 1.505 17.847 6.552 3.52 5.367 5.118 9.533 3.906 15.957-1.692 4.719-3.86 7.206-8 10-4.054 1.351-7.766 1.683-12 1-2.756-2.182-4.436-3.872-6-7-.23-5.538-.23-5.538 1-8l-27-1v66c13.882-.198 13.882-.198 27.762-.45q2.623-.023 5.246-.038l2.72-.078c4.34-.003 7.357.151 10.857 2.874C582 390 582 390 582.625 393.562c-.724 3.985-1.515 4.957-4.625 7.438-2.384.509-2.384.509-5.079.521l-3.105.043-3.39-.015-3.583.031c-3.24.023-6.48.028-9.72.023-2.706-.002-5.412.008-8.118.017-6.385.023-12.77.023-19.156.011-6.584-.012-13.167.013-19.75.055q-8.485.053-16.97.041c-3.376-.003-6.752.002-10.129.03-3.766.024-7.53.01-11.297-.012l-3.383.046c-7.33-.1-7.33-.1-10.148-2.067-2.33-2.622-3.164-4.332-3.234-7.849 1.203-3.256 2.323-4.762 5.062-6.875 2.906-.94 5.543-1.122 8.585-1.114h2.767l2.882.016 2.669.003c3.282.006 6.565.02 9.847.032L505 384v-65h-30l2 4c0 4.499-.545 6.452-3.437 9.937-3.505 2.528-6.845 2.835-11.09 2.618-4.229-.949-6.771-3.262-9.473-6.555-2.634-4.237-2.667-9.146-2-14 1.896-5.41 5.442-8.703 10-12 2.79-.93 4.486-1.131 7.37-1.147" fill="#24484F"/>
  <path d="m745.5 248.563 3.168-.061 3.05.002 2.78-.006c3.406.683 4.4 1.74 6.502 4.502a50 50 0 0 1 .508 7.94l.019 2.441c.016 2.704.003 5.406-.01 8.11q.009 2.904.022 5.81c.018 5.262.011 10.524-.002 15.786-.01 5.501 0 11.002.006 16.504a9727 9727 0 0 1-.022 27.713 7972 7972 0 0 0 .008 32.068q.026 13.755.01 27.509c-.006 5.48-.007 10.96.006 16.44q.017 7.726-.02 15.452a763 763 0 0 0 .006 5.68c.01 2.579-.003 5.156-.023 7.734l.027 2.288c-.05 3.29-.085 5.052-2.404 7.489-2.69 1.308-4.678 1.424-7.666 1.434l-3.201.012-3.327-.035-3.337.035-3.198-.012-2.922-.01C733 453 733 453 731.37 451.967c-2.125-3.051-1.786-6.237-1.758-9.824l-.016-2.452c-.014-2.72-.007-5.44 0-8.16l-.02-5.839c-.019-5.293-.018-10.586-.012-15.88.003-4.413-.003-8.827-.009-13.24q-.02-15.615-.001-31.228c.011-10.752-.003-21.503-.03-32.254q-.032-13.83-.022-27.661.007-8.268-.017-16.535-.022-7.77.008-15.542.005-2.858-.01-5.714a651 651 0 0 1 .016-7.78l-.03-2.302c.047-3.305.074-5.076 2.406-7.522 4.265-2.075 8.975-1.503 13.625-1.471" fill="#264951"/>
  <path d="M330.438 246.875C332 248 332 248 333 250c.07 2.207.084 4.417.063 6.625l-.028 3.602L333 263l2.813.063c7.87 1.165 14.536 6.667 19.312 12.75 3.302 4.59 4.578 7.359 3.875 13.187-3.614 3.81-6.498 4.272-11.687 4.438-4.769-.007-4.769-.007-7.04-1.805C336 286.153 336 286.153 336 283a565 565 0 0 0-10.687-.312l-3.053-.127c-6.155-.151-6.155-.151-11.405 2.834-2.597 3.647-2.994 5.132-2.605 9.543l.203 2.652c.649 2.86 1.222 3.658 3.547 5.41 2.626.409 2.626.409 5.594.3 1.113.01 2.227.018 3.375.026q3.485-.014 6.969-.062c9.779.106 16.623 2.864 24 9.298.68.805 1.36 1.61 2.062 2.438l2.125 2.188c4.463 6.695 6.01 14.873 4.875 22.812-1.052 3.485-2.42 6.725-4 10l-1.285 3.059c-3.058 5.245-8.3 7.52-13.715 9.941-3.143.748-5.749.946-9 1l.035 2.52c.01 1.086.018 2.173.027 3.293l.036 3.269C333 376 333 376 332 379c-2.848 1.424-5.328 1.17-8.5 1.188l-3.531.042C317 380 317 380 315 378c-.414-3.04-.414-3.04-.625-6.625l-.227-3.602L314 365l-2.414-.297C302.487 363.42 297.22 360.953 291 354v-2h-2c-2.095-3.404-2.496-6.034-2-10 2.232-2.848 3.55-3.85 7-5 3.684-.132 6.49-.17 10 1a283 283 0 0 1 5 5l2 1v2c3.209-.11 6.417-.241 9.625-.375.904-.03 1.807-.062 2.738-.094 8.339-.284 8.339-.284 15.512-4.156 1.631-3.443 1.67-6.674 1.125-10.375-1.238-2.848-2.126-4.436-4.736-6.12-2.864-1.113-5.173-1.103-8.244-1.083l-3.53-.035q-3.648-.012-7.297.023c-9.167-.131-14.428-2.196-21.002-8.527-5.718-5.974-8.4-12.454-8.691-20.695.362-9.729 3.6-16.558 10.29-23.583 5.437-4.87 10.934-7.516 18.21-7.98l-.176-2.957-.137-3.856-.175-3.832C315 249 315 249 317.266 247.07c4.492-1.758 8.544-1.856 13.171-.195" fill="#96B4A5"/>
  <path d="m474.598 195.596 3.16-.02c3.435-.02 6.87-.015 10.305-.01l7.183-.015q7.52-.013 15.04.003c6.42.011 12.838-.009 19.257-.038 4.944-.018 9.887-.018 14.83-.012q3.55 0 7.1-.019c3.31-.015 6.62-.004 9.93.013l2.95-.029c6.847.074 11.268 1.364 16.39 6.164 3.771 4.968 4.89 8.1 4.257 14.367-1.461 4.14-3.543 7.36-7.059 10.082-4.115 1.946-8.539 1.662-12.941.918-3.002-1.801-4.452-2.903-6-6-.259-4.051-.304-5.543 2-9h-28v81h-28v-81l-30 1 1 2c.402 2.948.55 5.081-1.012 7.691-2.178 2.715-3.653 4.197-6.988 5.309-4.094.386-6.469.26-10.187-1.563-4.58-3.969-6.976-7.798-7.438-13.812.27-5.441 2.758-9.857 6.625-13.625 5.922-3.191 10.947-3.435 17.598-3.404" fill="#25484D"/>
  <path d="m686.813 295.734 3.507-.007 3.68.023 3.68-.023 3.508.007 3.23.007C707 296 707 296 709 298c.252 2.63.252 2.63.254 6.036l.017 3.9-.012 4.304q.003 2.258.01 4.513c.01 4.093.006 8.186 0 12.28-.005 4.276 0 8.552.002 12.829q.005 10.773-.01 21.548-.015 12.468.003 24.938.014 10.69.006 21.383-.007 6.391.003 12.784.007 6.007-.01 12.016-.004 2.21.002 4.42c.006 2.004-.002 4.009-.011 6.013l-.002 3.406C709 451 709 451 707 453c-4.127.485-8.286.37-12.437.375l-3.51.074-3.362.012-3.087.025C682 453 682 453 680.36 451.357c-1.749-3.03-1.736-5.066-1.735-8.557l-.021-3.858.023-4.226q-.004-2.227-.011-4.455c-.01-4.03 0-8.061.013-12.092.011-4.215.007-8.43.005-12.645q0-10.615.029-21.23c.021-8.189.024-16.378.018-24.567q-.006-11.806.011-23.614.007-5.03.004-10.06-.002-5.916.022-11.833.006-2.175.002-4.352a821 821 0 0 1 .018-5.922l.007-3.353c.514-5.242 3.57-4.85 8.067-4.859" fill="#23474E"/>
  <path d="m877 768 1 4h2c.402 5.33.721 10.662 1 16l.128 2.152c.628 11.525-1.385 20.983-5.128 31.848-1.707 5.199-3.08 9.896-3.437 15.375-.266 3.13-.486 4.496-2.125 7.25-3.446 1.943-6.613 1.961-10.438 1.375-2.839-1.217-5.28-2.868-7.812-4.625q-2.115-1.394-4.235-2.781l-2.057-1.364c-4.143-2.688-8.528-4.934-12.896-7.23l-4.008-2.14Q823.5 824.922 818 822v-2l-2.144-.325c-5.45-1.288-10.209-4.34-15.106-6.987l-3.375-1.764-3.203-1.725-2.935-1.567C789 806 789 806 788.177 803.8L788 802c3.712-3.258 7.94-4.68 12.5-6.375q2.46-.934 4.918-1.871l2.404-.914c2.688-1.037 5.34-2.146 7.99-3.278 6.307-2.664 12.712-5.055 19.117-7.47a531 531 0 0 0 17.134-6.842c18.13-7.556 18.13-7.556 24.937-7.25" fill="#94B4A5"/>
  <path d="M204 671c4.545.909 6.523 1.692 10.297 4.07l3.12 1.947 3.333 2.108q3.494 2.185 6.992 4.363l1.805 1.128c7.443 4.643 14.986 9.12 22.53 13.597l2.978 1.775 2.609 1.548C260 703 260 703 261.845 704.567c2.557 1.7 3.926 1.81 6.97 1.818l2.902.03 3.135-.009 6.675.06 3.52.016c32.341.163 32.341.163 46.89 1.956l3.017.37c4.28.595 8.115 1.296 12.046 3.192.25 7.625.25 7.625-2 11-3.92 1.216-7.824 1.121-11.902 1.114h-2.041q-3.32-.002-6.639-.016l-4.62-.005a6743 6743 0 0 1-12.127-.024q-6.195-.014-12.388-.02-12.142-.016-24.283-.049l.176 3.324q.07 2.182.137 4.364l.126 2.185c.096 4.17-.095 5.682-2.744 9.107C266 745 266 745 262.563 745.625c-4.288-.752-6.957-2.181-9.563-5.625-.952-2.81-1.54-5.119-2-8q-.49-2.626-1-5.25l-.437-2.453c-.571-2.33-1.41-4.202-2.563-6.297-12.982 2.538-24.213 8.246-35.633 14.738C209 734 209 734 204 736z" fill="#24494E"/>
  <path d="m638.916 350.678 3.522.01 3.51-.05 3.36-.001 3.088-.01c3.057.438 3.728.993 5.604 3.373.375 1.86.375 1.86.374 3.985l.021 2.447-.023 2.673.011 2.825c.008 3.086-.005 6.171-.02 9.257l.002 6.423q0 6.734-.029 13.467c-.023 5.76-.023 11.52-.016 17.282.003 4.42-.004 8.842-.013 13.264a2489 2489 0 0 0-.004 6.373q-.002 4.449-.028 8.899l.007 2.673c-.053 6.089-.053 6.089-2.282 9.432-2.582.372-2.582.372-5.812.363l-3.508-.002-3.68-.049-3.68.01c-9.053-.055-9.053-.055-11.32-2.322a133 133 0 0 1-.259-9.191l-.01-2.888c-.01-3.161-.003-6.322.003-9.484l-.005-6.568q-.005-6.89.01-13.78c.012-5.899.005-11.797-.007-17.696q-.009-6.784 0-13.567.003-3.264-.005-6.526c-.005-3.037.003-6.072.014-9.109l-.012-2.745c.063-9.147 3.03-8.716 11.187-8.768" fill="#24484F"/>
  <path d="m623.99 183.606 3.795-.035 4.17.01 4.386-.027c3.973-.022 7.946-.025 11.919-.023q4.972-.002 9.945-.017 11.73-.027 23.461-.015c8.072.007 16.143-.016 24.214-.053q10.39-.045 20.78-.038c4.138.002 8.276-.004 12.415-.028 3.891-.023 7.782-.02 11.674 0q2.142.005 4.286-.016c1.949-.019 3.898-.003 5.848.015l3.306-.003c2.811.624 2.811.624 5.162 2.975 2.03 3.262 2.279 4.87 1.649 8.649-2.15 3.338-3.204 4.735-7 6-1.93.104-3.862.148-5.794.16l-3.662.031-4.024.018-4.233.03q-6.953.043-13.904.07l-2.39.01q-11.152.047-22.306.074-14.268.031-28.534.133-10.032.07-20.064.08c-3.995.004-7.99.02-11.984.059a845 845 0 0 1-11.273.032q-2.067 0-4.134.032c-10.391.152-10.391.152-13.632-2.033-2.342-2.7-3.738-5.291-3.566-8.883.5-3.813.5-3.813 1.657-5.527 2.644-1.845 4.625-1.67 7.833-1.68" fill="#224850"/>
  <path d="M884 158c2.5 1.375 2.5 1.375 5 3v2h2v2h2v2l3 1 1 5-3 1-.312 1.875C893 178 893 178 889.957 179.633L887 181l.016 1.769q.029 4.053.047 8.106l.025 2.781A148 148 0 0 1 886 212h2l-2 12 3 1-2 4 2 3-2 1c-.105 4.814-.105 4.814.563 9.563.437 2.437.437 2.437-.016 5.047-.652 4.043-.776 7.981-.863 12.07l-.063 2.463q-.097 3.865-.183 7.732l-.131 5.266q-.16 6.429-.307 12.859l3 1-2 1 .563 3.188c.404 3.52.135 5.436-.563 8.812a102 102 0 0 0-.114 5.157v3.033l.016 3.236.005 3.341c.005 3.515.018 7.03.03 10.546l.014 7.158q.017 8.764.049 17.529h1l-.562 3.25c-.397 3.4-.287 4.637.562 7.75.121 3.75.173 7.062-.508 10.75-.577 3.814-.563 7.532-.492 11.375.076 4.12.036 7.868-1 11.875a86 86 0 0 0 .438 5.125c.63 7.147.68 14.265.687 21.438l.013 3.498-.005 3.318-.004 2.986c-.116 2.37-.454 4.37-1.129 6.635l2 1-.5 2.25c-.62 2.94-.62 2.94-.5 6.75l2 1-.562 1.875c-.675 2.167-.675 2.167.562 4.125a136 136 0 0 1-3 7l5 2a101 101 0 0 1-2 6l-2 1c-1.188 7.51-1.498 14.841.586 22.191.564 2.463.182 4.429-.586 6.809l3 2-4 2 1 11-1-4c-2.932 2.853-5.643 5.65-8 9l2 3-2 3-2.5.375-2.5.625c-1.233 2.457-1.233 2.457-2 5l-2 1-1-1c-1.887.367-1.887.367-4 1-2.942.828-4.817 1-8 1v-2l-2.375 1.063L851 536l-2-1-1 2-2-1h-5l-1-1c-2.701.09-5.37.237-8.062.438l-2.3.158q-2.82.196-5.638.404v-2l-2 1c-1.583.152-3.172.25-4.762.316l-2.892.127-3.034.12-2.974.13c-14.087.596-14.087.596-17.775-.255-2.984-.51-5.556-.07-8.528.375C780 536 780 536 776.563 535.5c-3.706-.52-6.684-.243-10.36.238-3.948.47-7.757.596-11.64-.3-3.682-.63-6.876 0-10.563.562v-2l-2.375 1.063L739 536l-2-1c-2.335.318-4.668.654-7 1a206 206 0 0 1-7.36.098l-2.033-.005c-2.119-.005-4.238-.018-6.357-.03q-2.154-.009-4.309-.014c-3.647-.011-7.294-.03-10.941-.049h-3l-3.312-.5c-4.557-.618-8.3-.962-12.688.5-5.334.265-10.721.321-16-.562-2.898-.423-4.26-.169-7 .562l-2.18-.5c-3.416-.606-6.367-.322-9.82 0-7.11.552-13.903.278-21-.5l-1 2-1.977-.46c-3.786-.676-7.564-.937-11.398-1.165l-2.21-.156c-4.636-.282-8.809.063-13.415.781q-3.593.132-7.187.125l-3.606.008C580 536 580 536 578.073 535.482c-2.282-.53-4.111-.494-6.444-.326l-2.49.16-5.141.368c-4.273.274-7.786.16-11.998-.684l-2 2c-4.36-.23-6.142-1.847-9-5l-2-1-3 1-.875-2.937c-.767-3.17-.767-3.17-3.125-4.063l-1 2h-2c-.693-3.724-1.111-7.21-1-11l2 2.063c8.132 8.063 15.255 14.044 27.204 14.074l3.208.015 3.523.002 3.744.013q5.148.016 10.296.022 5.55.01 11.103.029 13.41.034 26.82.052l7.58.011a57735 57735 0 0 0 60.73.071c14.625.013 29.25.046 43.874.088q22.536.063 45.072.071c8.431.004 16.863.015 25.294.048q10.776.044 21.55.028c3.662-.005 7.323-.002 10.984.022 3.98.027 7.96.015 11.94-.001l3.462.042c8.672-.085 18.386-1.564 24.862-7.82L873 523h2l.75-1.562c1.288-2.511 2.74-4.883 4.25-7.266 3.595-7.807 3.292-15.85 3.278-24.27l.018-4.302q.022-5.89.02-11.78c.004-4.24.02-8.48.033-12.72q.034-11.011.048-22.024c.014-10.614.04-21.228.068-31.842q.067-25.833.113-51.665.045-25.09.105-50.181l.007-3.126.037-15.523q.154-64.37.273-128.739" fill="#C8D1CA"/>
  <path d="M628.016 219.467c.792-.01 1.585-.018 2.401-.027a645 645 0 0 1 7.833-.006q2.73-.008 5.458-.02 5.715-.014 11.429.01c4.88.017 9.758-.007 14.637-.042 3.756-.022 7.511-.02 11.267-.012q2.7 0 5.397-.02c2.516-.018 5.03-.004 7.546.019l2.246-.036c3.895.072 5.632.559 8.736 2.988C707 225 707 225 707.562 228.5c-.646 4.023-1.662 5.683-4.562 8.5-3.53 1.177-6.732 1.163-10.406 1.177l-2.277.02c-2.487.02-4.974.031-7.462.041l-2.576.013q-6.75.03-13.5.044c-4.645.011-9.288.046-13.932.085-3.575.027-7.15.035-10.724.038q-2.568.008-5.135.035a539 539 0 0 1-7.194.017l-2.13.039c-4.988-.053-7.823-1.384-11.664-4.509-1.567-3.134-1.852-6.632-1-10 4.014-4.14 7.494-4.582 13.016-4.533" fill="#274E54"/>
  <path d="M872 745c2.37 2.127 2.934 3.42 3.293 6.578l-.106 2.672-.082 2.703L875 759a165 165 0 0 1-16.766 7.75l-1.956.777c-7.203 2.853-14.428 5.653-21.653 8.452-10.601 4.107-21.2 8.219-31.75 12.458l-2.298.918a752 752 0 0 0-11.526 4.715q-2.431.997-4.864 1.992l-2.193.946c-4.702 1.902-7.917 2.234-12.994.992-1-1-1-1-1.562-3.75.562-3.25.562-3.25 1.991-4.494 5.564-3.336 11.292-5.973 17.259-8.506q3.34-1.445 6.68-2.898l1.808-.788c7.294-3.187 14.524-6.514 21.755-9.842q3.57-1.644 7.142-3.283c7.458-3.43 14.9-6.889 22.31-10.42l5.746-2.72c1.76-.839 3.515-1.69 5.269-2.54l3.192-1.513 2.746-1.322c3.07-1.065 5.436-1.209 8.664-.924" fill="#1F474D"/>
  <path d="M518 436h1l.056 1.853q.296 9.688.634 19.375.12 3.599.23 7.197c.183 25.519.183 25.519 7.506 49.63.574 1.945.574 1.945-.32 4.203L526 520l-4-2v-5l-4-1v-3c-5.747 5.126-8.074 10.406-9 18l-2-1-1 2c-2.026.225-4.055.444-6.09.559-2.314.304-2.314.304-3.91 3.441v3l-8 1-1-2-3 2h-3l-2 1v-2l-4 2v-2l-1.615.496c-2.905.614-5.572.598-8.541.567l-3.598-.024-7.492-.078-3.598-.024-3.287-.035c-2.484.085-4.506.372-6.869 1.098v-2l-2.152.473-2.786.59-2.777.597L430 537l-1-1a122 122 0 0 0-5.934-.062l-3.654.023-7.687.078-3.659.024-3.376.035C402 536 402 536 400 535l-1 2-7-3-1 2-2.63-.016q-4.826-.025-9.65-.039-2.09-.008-4.179-.02-3-.018-6.002-.023l-3.65-.016c-2.83-.087-2.83-.087-4.889 1.114v-2a315 315 0 0 0-5.25.313l-2.953.175c-3.05.558-4.504 1.476-6.797 3.512l-1-3c-2.94.184-2.94.184-6 1-1.436 1.952-1.436 1.952-2 4v-6l-3.56.092a37792 37792 0 0 1-18.822.48l-10.726.276c-4.632.115-9.258.172-13.892.152H188c-2.785.487-5.312 1.104-8 2v2h3l2 5-3 1c-4.889-4.513-4.889-4.513-5.5-7.187L176 537l-2.5-1-2.5-1c-.812-2.125-.812-2.125-1-4l2.657.492c3.016.458 5.794.634 8.838.637l3.251.01 3.539-.005 3.785.007q5.19.008 10.38.004c3.734 0 7.468.006 11.202.01q10.97.012 21.94.012 8.917 0 17.833.006 25.287.014 50.572.012h5.51q22.116.002 44.233.023 22.714.023 45.427.02 12.75-.001 25.5.014 10.856.014 21.71.005 5.537-.007 11.073.005c4.004.01 8.008.003 12.011-.005l3.525.016c7.871-.034 14.574-.947 21.827-4.2l2.207-.965c2.046-1.135 3.343-2.451 4.98-4.098h2l1-3a125 125 0 0 1 3-3c3.14-5.065 4.761-10.238 6.188-16l.505-1.954c3.289-14.172 2.55-29.568 2.87-44.046l.13-5.562q.158-6.72.307-13.438" fill="#C5CFC8"/>
  <path d="M504 166h1v18l4.77-.048a3956 3956 0 0 1 17.544-.117q3.795-.022 7.59-.061c3.638-.037 7.277-.054 10.916-.067 1.129-.015 2.257-.03 3.42-.047 9.98-.002 9.98-.002 14.76 3.34 4 5.053 4 5.053 4 9h-97c0-6 0-6 2.438-8.812L476 185l1-1c2-.088 4.002-.107 6.004-.098l3.682.01 3.877.025 3.888.014q4.775.02 9.549.049z" fill="#92B3A6"/>
  <path d="M456 808c3 1 3 1 4.188 3.063L461 813c-3.794 3.219-7.658 5.616-12 8l1 3q-4.375.04-8.75.063l-2.5.025-2.422.01-2.222.016C432 824 432 824 429.87 823.467c-2.266-.566-3.673-.173-5.87.533a129 129 0 0 0-1 6l1 1c.313 2.313.313 2.313 0 5-1.87 2.244-3.389 3.694-6 5l-.25 3c-.645 5.881-4.664 10.914-8.75 15-.425 2.068-.425 2.068-.562 4.375-.245 2.983-.64 5.737-1.438 8.625l-1-2-5 1-.937 2.813L398 880h-2v-2c-2.797 2.068-3.027 3.144-3.687 6.688L392 888l-3-1c-2.057.014-2.057.014-4 1-2.36 3.2-2.36 3.2-3 7l2 1-1.094 1.504c-3.273 4.79-4.51 7.698-3.906 13.496l4 1-1 2.875c-1.102 2.896-1.102 2.896-1 5.125l-2.437 1.375c-2.715 1.36-2.715 1.36-3.375 3.813L375 927c-13.794 4.36-30.218 4.288-44 0l-3 1 .07-3.21q.029-2.083.055-4.165l.05-2.117c.018-1.837-.072-3.674-.175-5.508l-2-2c-2.103.475-4.204.958-6.293 1.488-3.955.748-7.802.608-11.812.485-2.89-.058-2.89-.058-5.658.548-3.44.51-6.455.426-9.92.174l-3.811-.27-3.943-.3-3.932-.277c-5.92-.43-11.76-.961-17.631-1.848-.934 4.531-.934 4.531 0 9l-1.875 1.75c-1.938 2.052-3.025 3.684-4.125 6.25h-2v-2l-2-1 2.438-2.312c3.681-4.317 3.384-9.258 3.562-14.688l3.075.429c10.008 1.326 19.837 1.887 29.93 1.832 2.324-.011 4.648 0 6.974.012 7.699.007 15.021-.308 22.603-1.832 3.204-.584 6.173-.589 9.418-.441l.078 2.195c.36 6.146.84 10.105 4.922 14.805 4.268 2.134 9.901 1.268 14.639 1.295 2.09.017 4.178.061 6.267.105q2.008.015 4.016.026l3.675.044c4.067-.562 6.222-1.923 9.403-4.47 1.456-2.912.981-5.38.86-8.625-.537-23.438-.537-23.438 3.816-28.371 3.132-2.581 6.682-4.25 10.324-6.004 18.181-14.551 28.705-39.743 33-62l2.313.938c6.475 2.56 12.701 3.316 19.457 1.19 5.858-2.678 8.977-5.597 12.23-11.128" fill="#CAD0C9"/>
  <path d="M504 212h1v81c17.786-.237 17.786-.237 35.57-.54q3.358-.027 6.715-.046l3.49-.093c6.456-.004 10.357.467 15.043 5.094C567 299 567 299 568 302h-99l3-6h2v-2c9.492-3.164 19.994-1 30-1z" fill="#9CB6AB"/>
  <path d="m212.617 141.754 2.89-.012 3.18.017 3.374-.005c3.75-.003 7.499.008 11.248.019h8.041q8.67-.003 17.34.016c8.358.016 16.715.021 25.072.024q20.337.007 40.675.036 19.759.028 39.517.041l2.46.002 12.215.007q50.685.032 101.371.101v1c-8.243 1.092-16.483 1.342-24.785 1.554l-2.393.064c-22.543.583-45.092.529-67.641.516q-9.245-.002-18.49.002-15.456.003-30.91-.006-17.855-.006-35.709.002-15.422.007-30.843.003-9.174-.003-18.347.001-8.58.004-17.16-.005l-6.292.002q-4.287.002-8.574-.006l-2.52.007c-3.914-.014-7.514-.168-11.336-1.134 3.19-2.127 3.963-2.25 7.617-2.246" fill="#C9DFD9"/>
  <path d="M557 142a140560 140560 0 0 1 113.91-.11l2.417-.001q19.392-.015 38.784-.043 19.887-.028 39.775-.034 12.278-.004 24.557-.028 9.405-.016 18.808-.01 3.867 0 7.732-.012c3.507-.01 7.013-.008 10.52-.003l3.122-.017 2.836.012 2.454-.002C824 142 824 142 827 144c-62.113.625-124.224 1.108-186.34 1.123q-7.388.002-14.775.01-9.993.009-19.986.001-3.662 0-7.322.002c-31.78.025-31.78.025-41.577-2.136z" fill="#C6DED8"/>
  <path d="M234 766c3.395 2.051 4.803 3.705 7 7 .6 4.16.438 7.905-1.125 11.813-2.472 2.884-4.427 4.527-7.875 6.187-4.542.331-7.905-.172-11.562-2.937C219 786 219 786 219 784h-2c-1.607-3.215-1.473-6.513-1-10 4.124-7.954 9.505-9.143 18-8" fill="#F7F9F1"/>
  <path d="m885 159 4 2v2h2v2h2v2l3 1 1 5-3 1-.312 1.875C893 178 893 178 889.957 179.633L887 181l.016 1.769q.029 4.053.047 8.106l.025 2.781A148 148 0 0 1 886 212h2l-2 12 3 1-2 4 2 3-2 1c-.105 4.814-.105 4.814.563 9.563.437 2.437.437 2.437-.016 5.047-.652 4.043-.776 7.981-.863 12.07l-.063 2.463q-.097 3.865-.183 7.732l-.131 5.266q-.16 6.429-.307 12.859l3 1-2 1 .563 3.188c.404 3.52.135 5.436-.563 8.812a102 102 0 0 0-.114 5.157v3.033l.016 3.236.005 3.341c.005 3.515.018 7.03.03 10.546l.014 7.158q.017 8.764.049 17.529h1l-.562 3.25c-.397 3.4-.287 4.637.562 7.75.12 3.744.174 7.053-.504 10.734-.595 3.918-.605 7.688-.558 11.641l.013 2.23q.02 2.698.049 5.395l-2 1z" fill="#DBDBD5"/>
  <path d="M533 319h28l-1 9c.65 2.929.65 2.929 2 5l2 1-30-1v51h40v1h-41z" fill="#D5D9D4"/>
  <path d="m855 768-1 3c-2.047.706-4.056 1.01-6.187 1.375L846 773l-1 3 4 1c-7.549 3.645-15.114 6.872-22.98 9.746a234 234 0 0 0-13.145 5.317c-4.794 2.077-9.603 4.057-14.5 5.875l-3.414 1.277c-3.081.817-4.035.715-6.961-.215a145 145 0 0 0-6.25-.062l-3.266.027L776 799c2.982-1.988 5.767-3.241 9.074-4.61l3.686-1.527 3.928-1.613 2.008-.828c8.254-3.401 16.524-6.72 24.913-9.777 3.848-1.42 7.659-2.93 11.47-4.446l1.916-.76c2.578-1.025 5.156-2.048 7.73-3.082q2.708-1.086 5.42-2.162l3.198-1.28C852 768 852 768 855 768" fill="#E8EEE5"/>
  <path d="M475 319h30v65h-1v-51h-32c.68-.64 1.361-1.279 2.063-1.937 2.81-3.738 2.81-3.738.937-12.063" fill="#D8D8D0"/>
  <path d="M473 435h32v26h-1v-12l-2.539.124q-4.656.219-9.314.413-2.017.087-4.033.187c-1.93.094-3.862.173-5.794.253l-3.523.158C476 450 476 450 474 448l1-1c.282-4.896-.125-7.313-2-12" fill="#E6E3D8"/>
  <path d="M842 158h2c1.288 2.576 1.124 4.405 1.123 7.29l.006 3.422-.009 3.79q0 2.002.003 4.003.002 5.517-.007 11.035-.005 5.942-.002 11.885 0 10.302-.008 20.605-.011 14.895-.012 29.791-.004 24.165-.019 48.33-.014 23.48-.02 46.958v2.922l-.005 14.512q-.016 60.23-.05 120.457h-1c-1.32-11.368-1.141-22.749-1.13-34.175q-.001-3.361-.005-6.724-.005-9.12 0-18.24c.003-6.444 0-12.888 0-19.332q-.004-17.367.006-34.735.005-15.492-.001-30.985c-.026-59.275-.049-118.543 1.13-177.809l-3-1z" fill="#F2FBFB"/>
  <path d="M862 853h2c.716 2.576 1.17 4.396.438 7-1.438 2-1.438 2-4.5 4.313-3.61 3.301-3.514 4.943-3.938 9.687-1.25 2.875-1.25 2.875-3 5-2.687.813-2.687.813-5 1v7l-3 1-2-2c-1.687 1.1-1.687 1.1-3 3 .322 3.1.322 3.1 1 6-1 1-1 1-3.066 1.098l-2.496-.035-2.504-.028L831 896l-.844 1.766c-1.097 2.12-2.287 4.03-3.656 5.984l-1.281 1.86L824 907h-2v2l-2.25-.125c-2.867.13-4.28.763-6.75 2.125h-2c-1.564.79-3.103 1.63-4.625 2.5l-2.477 1.406L802 916l3 3-8 2-2-3-1.687 1.625L791 921c-2.75-.812-2.75-.812-5-2a110 110 0 0 1 7.836-3.629c25.601-10.834 47.16-27.894 61.937-51.754L857 862h2l.402-1.715.535-2.222.528-2.215C861 854 861 854 862 853" fill="#D1D5CA"/>
  <path d="M533 212h28l-1 9 2 4c-8.348 4.174-18.674.359-28 0v63h-1z" fill="#DCDDD5"/>
  <path d="M376 889h1q.289 6.725.537 13.452.087 2.288.187 4.574c.094 2.194.175 4.389.253 6.583l.097 2.059c.147 4.676-.583 7.293-3.297 11.004-6.605 4.936-19.443 3.446-27.277 3.078l-2.533-.116c-3.787-.233-7.243-.613-10.873-1.743-3.091-1.206-3.091-1.206-6.094.109l.07-3.21q.029-2.083.055-4.165l.05-2.117c.018-1.837-.072-3.674-.175-5.508l-2-2c-2.103.475-4.204.958-6.293 1.488-3.955.748-7.802.608-11.812.485-2.89-.058-2.89-.058-5.658.548-3.44.51-6.455.426-9.92.174l-3.811-.27-3.943-.3-3.932-.277c-5.92-.43-11.76-.961-17.631-1.848-.934 4.531-.934 4.531 0 9l-1.875 1.75c-1.938 2.052-3.025 3.684-4.125 6.25h-2v-2l-2-1 2.438-2.312c3.681-4.317 3.384-9.258 3.562-14.688l3.075.429c10.008 1.326 19.837 1.887 29.93 1.832 2.324-.011 4.648 0 6.974.012 7.699.007 15.021-.308 22.603-1.832 3.204-.584 6.173-.589 9.418-.441l.078 2.195c.36 6.146.84 10.105 4.922 14.805 4.268 2.134 9.901 1.268 14.639 1.295 2.09.017 4.178.061 6.267.105q2.008.015 4.016.026l3.675.044c4.067-.562 6.222-1.923 9.403-4.47 1.476-2.953 1.223-5.684 1.316-8.977l.063-2.076q.097-3.285.183-6.572l.131-4.453q.16-5.46.307-10.922" fill="#C8CFC7"/>
  <path d="M533 435h29l-2 4c-.238 4.503.212 8.02 3.063 11.563L565 452l-5-1v-2l-2.187.016q-4.875.029-9.75.046l-3.444.026-3.271.01-3.031.016C536 449 536 449 535 448l-1 31h-1z" fill="#E6E4D9"/>
  <path d="M474 212h30v13a49013 49013 0 0 1-23.145.781l-3.76.127Q474.047 226 471 226l2-2.125c2.332-3.353 2.434-4.882 2-8.875z" fill="#E2E1D7"/>
  <path d="m692.654 529.978 2.764.061 3.016.082 6.67.147 3.607.084c25.285.578 50.565.767 75.856.772q3.795.002 7.59.008 7.238.01 14.476 0l2.315-.002c10.582-.02 21.132-.236 31.694-.956 5.577-.329 10.003.197 15.358 1.826v1H683v-2c3.297-.744 6.277-1.108 9.654-1.022" fill="#2B4443"/>
  <path d="M173 123c57.198-.11 114.394.175 171.591.445q19.587.093 39.174.182 40.117.184 80.235.373v1l-292 1z" fill="#F4FDF5"/>
  <path d="m782 207 2 1-2 2c-.198 3.14-.27 6.19-.254 9.332l-.01 2.968c-.007 3.304-.001 6.607.005 9.91q-.003 3.54-.01 7.08-.011 8.637-.002 17.272.007 7.017.003 14.035v2.015l-.003 4.052q-.006 19.015.012 38.03.012 16.326-.002 32.65a28409 28409 0 0 0-.007 41.926l.001 2.007q.002 7.01-.006 14.02-.007 9.432.01 18.864.004 3.469-.002 6.938c-.006 3.148.001 6.295.011 9.442l-.013 2.8.015 2.547.001 2.203c.151 2.238.151 2.238 2.251 4.909l-4 1c-1.08-5.256-1.138-10.305-1.12-15.643l-.003-2.924q0-4.843.01-9.686l-.001-6.949q.001-9.43.013-18.86c.006-6.57.006-13.14.008-19.71q.004-16.542.018-33.083.014-17.037.02-34.072v-2.122l.005-10.541q.016-43.705.05-87.41l-2 2c.35-3.242.562-4.615 3.063-6.812z" fill="#EEFBF8"/>
  <path d="m246.79 530.121 4.044.072q5.32.094 10.637.202 8.412.164 16.824.314l4.11.076c9.515.178 19.026.275 28.542.156 5.742-.045 11.35.388 17.053 1.059v1H184v-1q6.588-.216 13.177-.427l4.472-.146q3.236-.106 6.472-.208l2.12-.068c3.6-.108 7.192-.163 10.794-.12 3.882.063 3.882.063 7.351-.54 6.117-.795 12.25-.501 18.403-.37" fill="#2A4342"/>
  <path d="M188 192h1c.812 5.801 1.212 11.494 1.352 17.348l.071 2.745q.11 4.485.202 8.97l.07 3.114c.557 26.283-.03 52.547-.695 78.823l-2 1z" fill="#F4FEFA"/>
  <path d="M188 336h1c.812 11.41 1.277 22.807 1.558 34.242.068 2.744.146 5.488.223 8.233q.068 2.62.133 5.24l.072 2.483c.044 1.934.035 3.868.014 5.802l-1 1a93 93 0 0 0-.082 5.222l.02 3.378.035 3.677.037 7.62q.036 6.04.086 12.081c.03 3.87.048 7.741.064 11.612l.04 3.671.011 3.387.023 2.992C190 449 190 449 188 451z" fill="#F3FDFA"/>
  <path d="m623 233 2.807.092q5.261.17 10.523.335 2.257.071 4.515.146a3572 3572 0 0 0 8.748.276c5.956.17 11.9.156 17.858.07C670 234 670 234 671 235c2.05.063 4.102.06 6.152.027l3.791-.037q3.99-.053 7.977-.117l3.795-.033 3.504-.051C699 235 699 235 701 237h-78z" fill="#174546"/>
  <path d="M885 399c2.084 4.169 2.277 6.973 2.23 11.469v2.173a732 732 0 0 1-.024 4.54c-.018 2.31-.02 4.62-.02 6.931q-.007 2.21-.018 4.418l-.003 2.087c-.033 3.269-.167 6.255-1.165 9.382l2 1-.5 2.25c-.62 2.94-.62 2.94-.5 6.75l2 1-.562 1.875c-.675 2.167-.675 2.167.562 4.125a136 136 0 0 1-3 7l5 2a101 101 0 0 1-2 6l-2 1c-.47 3.046-.47 3.046-.625 6.563l-.227 3.628L886 486h-1z" fill="#DDDCD4"/>
  <path d="M376 889h1q.289 6.725.537 13.452.087 2.288.187 4.574c.094 2.194.175 4.389.253 6.583l.097 2.059c.147 4.676-.583 7.293-3.297 11.004-6.605 4.936-19.443 3.446-27.277 3.078l-2.533-.116c-3.787-.233-7.243-.613-10.873-1.743-3.091-1.206-3.091-1.206-6.094.109v-5h3l2-2 2.073 2.46c3.557 3.086 5.126 3.172 9.767 3.169l3.97.006 2.055-.038a238 238 0 0 1 6.188-.001c7.026-.052 11.275-.084 16.947-4.596 1.476-2.953 1.223-5.684 1.316-8.977l.063-2.076q.097-3.285.183-6.572l.131-4.453q.16-5.46.307-10.922" fill="#C7CCC2"/>
  <path d="m874 743 5 2v2l1.875.813C883 749 883 749 885 752h-5c-.9 2.522-1.194 3.573-.062 6.063L881 760v3l-5 2v-4h-2l-1 5h-12l-1 2-2-2 16-7 .063-4.812.035-2.708c.012-2.614.012-2.614-1.098-5.48z" fill="#DBE5DE"/>
  <path d="M241 570h6v2h2v3h5l-1 9-5-2 1-4h-2l-2 4h-3l-2 2-.437-3.375c-.347-3.446-.347-3.446-1.563-5.625l-2.375 1.438c-1.514.901-3.049 1.774-4.625 2.562l1-7 8 1z" fill="#E8E2D6"/>
  <path d="M306 572c1.208 3.623.543 4.641-1 8l6-1 1 5c-3.75 1.125-3.75 1.125-6 0l.313 2.813L306 590c-2.25 1.688-2.25 1.688-5 3a163 163 0 0 0-4 3c-1-1-1-1-1.25-3.75.28-3.64 1.37-5.194 3.25-8.25.267-2.871.29-4.42-1-7l2.875-.812c3.378-.938 3.378-.938 5.125-4.188" fill="#EAE4D8"/>
  <path d="M787 920c-2.288 3.269-4.384 5.192-8 7l-3-1-1 2v-2c-1.52-.055-3.041-.093-4.562-.125l-2.567-.07c-2.942.08-2.942.08-5.871 1.195-5.637 1.734-11.605 1.208-17.437 1.125l-3.663-.027q-4.45-.036-8.9-.098l1-2c2.427-.331 2.427-.331 5.668-.457l3.618-.177 3.902-.178c10.68-.585 20.817-1.876 31.196-4.6l2.53-.662 2.186-.612C784 919 784 919 787 920" fill="#D2D8CF"/>
  <path d="M141 787h1v65h-3q-.07-12.048-.104-24.096-.014-5.595-.047-11.188a2351 2351 0 0 1-.039-10.796q-.004-2.06-.021-4.12a777 777 0 0 1-.016-5.768l-.014-3.317C139 790 139 790 141 787" fill="#DFE6E3"/>
  <path d="m504 317 3 1 1 26h1l-.48 3.006c-.564 3.958-.74 7.903-.836 11.896l-.063 2.19q-.096 3.423-.183 6.846l-.131 4.673A5671 5671 0 0 0 507 384h-2z" fill="#263E42"/>
  <path d="m886 160 3 1v2h2v2h2v2l3 1 1 5-3 1-.25 1.875L893 178l-7 3z" fill="#DAD6C8"/>
  <path d="M532 344h1v41h39v1l-2.14.06c-3.203.095-6.407.205-9.61.315-1.111.03-2.222.062-3.367.094l-3.242.117-2.984.095c-3.454.415-5.676 1.718-8.595 3.507-2.68 1.055-4.334.57-7.062-.188l-1-3-1 4v-2h-2v-2l-2-1 1-2h2z" fill="#153539"/>
  <path d="M533 435h29l-1 3-7-1-1 3v-2l-3.937.5c-4.783.607-9.11.5-14.063.5l-1 40h-1z" fill="#C6D0CB"/>
  <path d="M145 855a572 572 0 0 1 13.287-.44q2.258-.06 4.513-.164c12.534-.565 12.534-.565 16.79 2.42 1.735 1.984 3.141 3.878 4.41 6.184l-3 2c-1.875-.625-1.875-.625-4-2-1.25-3.125-1.25-3.125-2-6-1 .09-1 .09-2.02.184l-2.792.254-3.028.277q-3.081.278-6.164.539l-2.871.246-2.617.219c-2.545.285-5.006.743-7.508 1.281v-2l-3-1z" fill="#BDC9C3"/>
  <path d="m204 671 4 1-2 1 .007 2.079q.032 10.731.048 21.462.007 4.003.02 8.005c.013 3.84.018 7.68.023 11.52l.015 3.603c0 5.552-.11 10.865-1.113 16.331h-1z" fill="#233B3D"/>
  <path d="M679 912c6.107 1.976 12.097 4.253 18.1 6.521 3.942 1.47 7.717 2.855 11.9 3.479v3l-7 1-1-2-5 1-.312-1.937L695 921l-3-1-1 4a677 677 0 0 1-6-4.312l-1.734-1.225c-1.478-1.082-2.879-2.268-4.266-3.463z" fill="#D1D4CF"/>
  <path d="M382 887v8l2 1-1.094 1.504c-3.273 4.79-4.51 7.698-3.906 13.496l4 1-1 2.875c-1.102 2.896-1.102 2.896-1 5.125l-4-1v-31c2-1 2-1 5-1" fill="#D5D3C8"/>
  <path d="m562.07 122.885 3.052.002 3.335.02 3.556.01c15.74.069 31.479.312 47.217.547l12.495.18q12.137.176 24.275.356v1q-19.896.266-39.794.495-9.238.104-18.476.229-8.909.119-17.818.214-3.405.039-6.81.088c-3.17.046-6.341.08-9.512.11-.946.016-1.893.032-2.868.05l-2.61.017-2.273.027C554 126 554 126 552 124a43.8 43.8 0 0 1 10.07-1.115" fill="#F5FCF4"/>
  <path d="M480 533v2l-5 2v-2l-1.615.496c-2.905.614-5.572.598-8.541.567l-3.598-.024-7.492-.078-3.598-.024-3.287-.035c-2.484.085-4.506.372-6.869 1.098v-2l-2.152.473-2.786.59-2.777.597L430 537l-1-1a122 122 0 0 0-5.934-.062l-3.654.023-7.687.078-3.659.024-3.376.035C402 536 402 536 400 535l-1 2-5-2v-1a565047 565047 0 0 1 74.019-.908l2.28-.029c3.234-.039 6.466-.063 9.701-.063" fill="#D1DACE"/>
  <path d="M475 319h25v1l-20 1c-.953 3.81-.953 4.546 0 8l-1 1 1.898-.035c.818-.01 1.635-.018 2.477-.027l2.46-.036C488 330 488 330 490 331c2.371.23 4.747.411 7.125.563l3.883.253L504 332v1h-32c.68-.64 1.361-1.279 2.063-1.937 2.81-3.738 2.81-3.738.937-12.063" fill="#E3E5DF"/>
  <path d="M560 533h68v1l-2.367.076q-5.348.177-10.696.361l-3.724.12c-5.818.204-11.453.559-17.213 1.443q-3.593.132-7.187.125l-3.606.008c-2.678-.111-4.65-.493-7.207-1.133a302 302 0 0 0-8.25-.562l-2.258-.131q-2.745-.158-5.492-.307z" fill="#C1CEC6"/>
  <path d="M518 436h1l.07 1.9q.36 9.857.73 19.713l.27 7.34q.194 5.299.395 10.598l.117 3.275c.26 6.75.735 13.452 1.418 20.174-1.945-2.918-2.453-4.625-3-8l-2 1c-.079-12.342.168-24.663.5-37l.145-5.562q.174-6.72.355-13.438" fill="#C0CED0"/>
  <path d="M270 707q9.332-.074 18.665-.11 3.162-.015 6.324-.04c10.526-.086 20.978-.082 31.456 1.033l2.295.236c1.765.215 3.516.537 5.26.881l1 2c-18.583.192-18.583.192-26-1l-1-1c-2.81-.16-5.598-.26-8.41-.316l-2.552-.063q-4.05-.098-8.1-.183l-5.479-.131A6566 6566 0 0 0 270 708z" fill="#213A38"/>
  <path d="M332 534h60l-1 2-2.63-.016q-4.826-.025-9.65-.039-2.09-.008-4.179-.02-3-.018-6.002-.023l-3.65-.016c-2.83-.087-2.83-.087-4.889 1.114v-2a315 315 0 0 0-5.25.313l-2.953.175c-3.05.558-4.504 1.476-6.797 3.512l-1-3c-2.94.184-2.94.184-6 1-1.436 1.952-1.436 1.952-2 4v-6z" fill="#D2D8CC"/>
  <path d="M425.375 906.875 427 908v10c-3 1-3 1-6 0l-1-3-4 1 1-8c5.415-2.215 5.415-2.215 8.375-1.125" fill="#E7E1D5"/>
  <path d="m170 531 19 3-1 2a76 76 0 0 1-5 1l-3 1v2h3l2 5-3 1c-4.889-4.513-4.889-4.513-5.5-7.187L176 537l-2.5-1-2.5-1z" fill="#DAD7CC"/>
  <path d="M278 560h2c-.75 4.75-.75 4.75-3 7l7 2-1 3-3 1-2 3-5-1c-1-3-1-3 0-6v-3l2-2 1.5-2.125z" fill="#E2DED3"/>
  <path d="m598 569 2 1-.062 2.875c-.164 3.032-.164 3.032 1.062 5.125l3 1 1-3 3 1-3 1v3l-2 1v2c-3 1-3 1-5.187.063L596 583v-3h-3l-1-4 1.875-.125L596 575c1.305-2.996 1.305-2.996 2-6" fill="#EBE5D9"/>
  <path d="m411 359 .371 1.89c.83 2.784 2.241 3.57 4.629 5.11l-3.375.875c-3.628.817-3.628.817-5.625 3.125l-.875 2.438C405 375 405 375 403.125 376.25c-3.387 2.789-4.543 6.736-6.125 10.75h-5c1.934-4.247 3.987-7.305 7.25-10.625 4.917-5.279 8.362-11.035 11.75-17.375" fill="#E8EFF1"/>
  <path d="M620 220h80v1h-76l-1 2h-3z" fill="#213A39"/>
  <path d="M842 158h2c1.525 3.05 1.13 6.225 1.114 9.57v2.366c0 2.587-.009 5.173-.016 7.76l-.005 5.372q-.006 7.077-.024 14.154-.014 7.22-.02 14.438-.016 14.17-.049 28.34h-1v-79l-3-1z" fill="#EEFAF9"/>
  <path d="M473 435h32v26h-1v-25l-10.187.438-3.185.13-2.546.116-2.587.11c-2.56.211-4.988.654-7.495 1.206l-1 7h-1l-.937-3.312A170 170 0 0 0 473 435" fill="#B4C3C1"/>
  <path d="M727 549c2.063 1.625 2.063 1.625 4 4 .25 3.063.25 3.063-1 6-2.55 1.445-5.192 2.202-8 3l-2 1c.348-8.306.348-8.306 2.938-11.062C725 551 725 551 727 551z" fill="#DDD9CB"/>
  <path d="M354 408v2c-24.274 6.184-24.274 6.184-31.2 4.45-1.885-.679-1.885-.679-3.8.55l-4-3 1.69-.044c10.725-.312 21.003-.92 31.474-3.335C351 408 351 408 354 408" fill="#E7F5F2"/>
  <path d="M456 577c1 3 1 3 0 6l2 1c-.628 2.929-1.586 5.361-3 8l-1-1h-3c-1.533-1.533-2.213-2.976-3-5 .375-2.75.375-2.75 1-5h5z" fill="#EAE4D8"/>
  <path d="m413 773 3 1c.813 2.125.813 2.125 1 5-1.19 1.456-2.391 2.905-3.656 4.297-5.392 6.834-5.003 16.436-5.344 24.703h-1c-.284-12.562-.358-23.768 6-35" fill="#98B7AE"/>
  <path d="M874 761h2l1 4h3v2l2 1h-2l-1 4-2-3c-6.063.663-6.063.663-12 2l-2-4c3.782-1.837 5.946-2.158 10-1l-1-3h2z" fill="#F1F0E4"/>
  <path d="m759 564 4 4h4l2 4-3 1c-.733 2.015-.733 2.015-1 4-3.75 1.125-3.75 1.125-6 0z" fill="#E6E1D6"/>
  <path d="M837 887c0 3.625-.925 5.08-3 8l-3 1-.937 1.875c-1.281 2.561-2.655 3.62-5.063 5.125h-2v2l-3-1-1-2 2.922-2.266 3.828-2.984 1.922-1.488c3.315-2.59 6.434-5.193 9.328-8.262" fill="#CBD1C5"/>
  <path d="M696 533h58c-3.006 3.006-5.824 2.596-10 3v-2l-5 2-1-1c-3.1-.16-6.182-.26-9.285-.316l-2.82-.063q-4.48-.098-8.957-.183l-6.057-.131q-7.44-.161-14.881-.307z" fill="#C1CFC7"/>
  <path d="M311 231c-3.135 1.858-5.375 2.201-9 2l-1 3c-2.469.914-2.469.914-5.5 1.625-3.55.606-3.55.606-6.5 2.375-2 .04-4 .043-6 0 3.634-3.18 6.98-5.014 11.5-6.687l3.344-1.262c4.842-1.612 8.17-2.333 13.156-1.051" fill="#D7E9E6"/>
  <path d="m561 445 4 2v2h11l1-2h5c-3.981 4.197-5.968 5.8-11.812 6.375-4.825-.018-6.861-2.048-10.188-5.375z" fill="#33504E"/>
  <path d="M533 153c2.167 3.187 1.887 5.184 1.291 8.871-.57 4.165-.67 8.37-.854 12.566l-.13 2.795q-.159 3.384-.307 6.768l-6-1 1-2h3v-21h2z" fill="#204042"/>
  <path d="M362 531a80 80 0 0 0 4.668.098l2.705-.01 2.815-.025 2.85-.014q3.48-.018 6.962-.049v2c-32.514.206-32.514.206-46-1v-1q3.78-.255 7.563-.5l2.134-.145c12.04-.776 12.04-.776 16.303.645" fill="#274140"/>
  <path d="m188.688 126.25 3.318.2q4 .243 7.994.55v1l-2.064.076q-4.624.176-9.249.362l-3.248.119-3.115.127-2.872.11c-2.588.12-2.588.12-5.452 1.206l-2-1v2h-4v2l-3-1v-2c8.181-3.689 14.798-4.436 23.688-3.75M173 130l1 4-2-1z" fill="#2A4847"/>
  <path d="M409 263c3 1 3 1 4.79 4.422q.933 2.156 1.835 4.328l.945 2.172c1.564 3.667 2.851 7.105 3.43 11.078-3.329-2.22-3.75-3.347-5-7l-4 1-.184-2.738-.253-3.575-.247-3.55c-.203-3.163-.203-3.163-1.316-6.137" fill="#2C5052"/>
  <path d="M209 888c2.47 1.113 2.47 1.113 5 3 .568 2.82.568 2.82.488 6.2l-.049 3.661-.126 3.827-.069 3.86q-.089 4.727-.244 9.452h-1l-1-16h-1l-.375-2.437L210 897l-2-1q-.061-3.5 0-7z" fill="#B8C1BB"/>
  <path d="M184 865a159 159 0 0 1 6 5v2l3 1c1.37 1.636 2.7 3.307 4 5a178 178 0 0 0 4 4l-11-2v-6l-3-1c-3-5.222-3-5.222-3-8" fill="#D9DCD1"/>
  <path d="M193 151c1.245 2.49.777 3.41 0 6h-2l.563 2.438L192 162l-1 1a109 109 0 0 0-.535 5.348l-.264 3.271-.263 3.444-.276 3.455A3041 3041 0 0 0 189 187h-1c-.117-4.333-.188-8.666-.25-13l-.102-3.7c-.078-7.286.385-12.122 4.352-18.3z" fill="#E8F3F4"/>
  <path d="m346.762 924.121 3.388.147 3.538.17 3.572.158q4.37.194 8.74.404l-1 2h-27v-2c3.248-1.083 5.359-1.034 8.762-.879" fill="#253E3E"/>
  <path d="M774 788c.981 3.053.981 4.947 0 8l5 1c-3 2-3 2-6.625 1.688C769 798 769 798 768 797c-.312-2.875-.312-2.875 0-6 2.04-2.04 3.083-3 6-3" fill="#2D4E52"/>
  <path d="m855 768-1 3c-2.047.706-4.056 1.01-6.187 1.375L846 773l-1 3 4 1c-2.615 1.603-4.318 2.156-7.336 1.465A122 122 0 0 1 835 776c2.715-2.715 5.927-3.744 9.438-5.125l2.064-.84c2.976-1.183 5.266-2.035 8.498-2.035" fill="#E6EDE3"/>
  <path d="M376 889h1q.289 6.725.537 13.452.087 2.288.187 4.574c.094 2.194.175 4.389.253 6.583l.097 2.059c.15 4.768-.644 7.358-3.387 11.144C373 928 373 928 370.313 927.688L368 927l2.375-1.812c3.213-2.678 4.523-4.169 4.944-8.374l.095-3.888.059-2.072c.06-2.18.106-4.36.152-6.542q.057-2.22.117-4.439.142-5.436.258-10.873" fill="#ACB6B1"/>
  <path d="m618 184 2 1 1 3-3 1v5l3 1c1.188 2.063 1.188 2.063 2 4l-4 1c-2.925-2.925-4.309-5.02-4.437-9.125C615 187 615 187 616.5 185z" fill="#2D424A"/>
  <path d="M697 530v2h23v1h-37v-2c4.672-1.206 9.215-1.094 14-1" fill="#2E4745"/>
  <path d="M519 505c2.9 2.395 3.502 4.312 4 8h4c1 3 1 3 .063 5.188L526 520l-4-2v-5l-4-1-1-6z" fill="#D8D3C6"/>
  <path d="M407 330c1.349 2.698.703 4.118 0 7-3.77 11.308-3.77 11.308-7 15-1.453-4.66-.413-7.622 1.25-12.125l1.328-3.695c1.244-2.783 2.091-4.301 4.422-6.18" fill="#2A5156"/>
  <path d="m328.52 391.902 3.095.01 3.197.026 3.256.013q3.966.018 7.932.049c-6.845 3.573-13.825 3.126-21.375 3.063l-3.098-.014q-3.763-.018-7.527-.049c4.757-2.643 9.136-3.128 14.52-3.098" fill="#EAF6F1"/>
  <path d="m472.493 418.978 2.669.061 2.854.082 2.942.072q4.646.116 9.292.245l6.305.158q7.723.195 15.445.404v1q-9.772.288-19.543.537-3.327.088-6.653.187c-3.182.094-6.364.174-9.546.253l-3.018.097-2.79.061-2.463.068C466 422 466 422 464 420c2.926-.849 5.452-1.1 8.493-1.022" fill="#2C4B49"/>
  <path d="M490.75 314.875c3.74.802 7.47 1.528 11.25 2.125v1h-28l1-3 1.898.035 2.477.027 2.46.036c8.24-.372 8.24-.372 8.915-.223" fill="#264345"/>
  <path d="M377 892h1l1 19 4 1-1 2.875c-1.102 2.896-1.102 2.896-1 5.125l-4-1z" fill="#DBDED8"/>
  <path d="M479.614 183.773c1.079.01 2.157.02 3.269.032l3.535.02 3.707.05 3.73.027q4.573.036 9.145.098v1l-1.788.044c-2.676.075-5.35.171-8.024.268l-2.815.069-2.705.107-2.491.08c-2.603.517-3.516 1.414-5.177 3.432v-2h-4v4h-2c1.079-6.833 1.079-6.833 5.614-7.227M477 188l3 1-1 2-2-1z" fill="#8DAA9C"/>
  <path d="M208 559c1.125 3.75 1.125 3.75 0 6l7 1v2c-2.375 1.688-2.375 1.688-5 3l-2-1v-2h-3v-2h-2v-2l-2-1 4-1 1 2z" fill="#EAE3D7"/>
  <path d="M885 488c2.813 2.813 2.67 5.096 3 9-.437 2.938-.437 2.938-1 5l3 2-6 4q-.04-3.594-.062-7.187l-.026-2.042c-.018-3.725.195-7.15 1.088-10.771" fill="#DADBD0"/>
  <path d="M519 150h3l-.437 3.375c-.611 4.866-1.093 9.743-1.563 14.625-2.83-2.83-2.475-5.056-2.75-9l-.297-3.812C517 152 517 152 519 150" fill="#E3E5E5"/>
  <path d="m323 910-1 2c-2.04.414-2.04.414-4.625.625l-2.742.227c-3.213.18-6.415.148-9.633.148l-2.75.563c-4.811.647-9.447-.007-14.25-.563v-1c3.77-.341 7.541-.671 11.313-1 1.052-.095 2.105-.19 3.189-.29A197 197 0 0 1 323 910" fill="#D6DDD4"/>
  <path d="M862 853h2c.716 2.576 1.17 4.396.438 7-2.061 2.867-4.681 4.818-7.438 7l-2 2c.875-4.75.875-4.75 2-7h2l.402-1.715.535-2.222.528-2.215C861 854 861 854 862 853" fill="#D7DACD"/>
  <path d="M874 750h1v9q-2.342 1.19-4.687 2.375l-2.637 1.336C860.848 766 860.848 766 857 766v-2c4.282-2.285 8.137-4.325 13-5 1.335-.325 2.67-.655 4-1l-.562-3.437L873 751z" fill="#1F403E"/>
  <path d="m627 567 3 2c.125 2.5.125 2.5 0 5l1 2h-10v-5h5z" fill="#E4E0D4"/>
  <path d="M263 234q-2.404 2.19-4.812 4.375l-2.708 2.46C253 243 253 243 250 245c.313-2.875.313-2.875 1-6l3-2c.724-2.06.724-2.06 1-4 4.625-1.25 4.625-1.25 8 1" fill="#E3EAE4"/>
  <path d="M734 249c3.77-.087 7.541-.14 11.313-.187l3.248-.077 3.115-.029 2.872-.048c2.85.396 3.702 1.12 5.452 3.341l-2 2-1-1a200 200 0 0 0-7.562-.562l-2.155-.131q-2.64-.159-5.283-.307v-1l-8-1z" fill="#3F5A58"/>
  <path d="m482 122 1 2c1.865.39 1.865.39 4 .5 2.188.156 2.188.156 4 .5l1 2q-4.844-.212-9.687-.437l-2.764-.12-2.686-.127-2.46-.11c-2.524-.216-4.929-.665-7.403-1.206v-1q3.188-.502 6.375-1l3.586-.562C480 122 480 122 482 122" fill="#EFF5EF"/>
  <path d="M553 539c2 1.375 2 1.375 4 3v2h2v2h-2v2l-5 2a272 272 0 0 1-.625-4.375l-.352-2.46L551 541z" fill="#E6E0D5"/>
  <path d="m828.688 497.938 2.449.59L833 499c-5.23 4.262-9.252 5.265-16 5l6-4-2-2c3.297-1.099 4.405-.871 7.688-.062" fill="#E5EEEB"/>
  <path d="M686 448v2h2v2h19v1c-4.125.087-8.25.14-12.375.188l-3.562.076-3.399.029-3.142.048L682 453l-2-3c3-2 3-2 6-2" fill="#375255"/>
  <path d="M230 344c2.741 1.658 3.857 2.61 4.977 5.664l.648 2.961A81 81 0 0 0 237 358l2 1c.625 2.563.625 2.563 1 5-3.544-3.135-5.314-6.266-7.25-10.562l-1.578-3.442C230 347 230 347 230 344" fill="#2A4547"/>
  <path d="m156 138 2 2q-.892 2.411-1.812 4.813l-1.02 2.707c-1.13 2.4-2.179 3.764-4.168 5.48-.872-2.962-1.195-4.508-.04-7.422l1.415-2.328 1.398-2.36C155 139 155 139 156 138" fill="#364D4E"/>
  <path d="M497 471c2.164.371 2.164.371 4 1-5.966 8.815-5.966 8.815-11 10 1.264-4.942 2.96-7.826 7-11" fill="#ECF1EC"/>
  <path d="M416 345c1 3 1 3 .41 4.778l-.992 1.945-1.076 2.13-1.154 2.21-1.12 2.22c-2.773 5.422-2.773 5.422-5.068 7.717 0-3.812.373-5.655 2-9l2-1 .375-2.187c.79-3.557 2.512-5.882 4.625-8.813" fill="#214042"/>
  <path d="M775 922v2c-2.895 1.625-5.2 2.297-8.5 2.563-2.293.192-4.36.398-6.578 1.023-2.956.637-5.167-.522-7.922-1.586v-1l2.852-.402 3.773-.535 3.727-.528c2.311-.339 4.62-.703 6.921-1.101C772 922 772 922 775 922" fill="#BCC9C0"/>
  <path d="m874 743 5 2v2h2v2l-2 1-1 3h-1l-1 6h-1l-.184-2.082-.254-2.73c-.08-.894-.162-1.787-.246-2.708-.25-2.607-.25-2.607-1.316-5.48z" fill="#C9CCC2"/>
  <path d="M739 668h2v5h2c.383 5.232-.781 8.378-3 13h-1z" fill="#FDF6F0"/>
  <path d="M200 880c3.492 1.111 6.766 2.275 10 4l2.188.938C214 886 214 886 215 889l-2 2a1617 1617 0 0 1-5.937-4.375l-1.71-1.25c-4.24-3.148-4.24-3.148-5.353-5.375" fill="#334C4D"/>
  <path d="m401 369 2 4-1.46 1.645c-.633.715-1.264 1.43-1.915 2.168l-1.898 2.144c-1.868 2.131-1.868 2.131-3.727 5.043h-2c1.26-5.883 3.3-8.264 8-12z" fill="#203F42"/>
  <path d="M480 290v2h24v1l-30 1v2l-2-1 1-2h2v-2c2-1 2-1 5-1" fill="#E3F1E6"/>
  <path d="m562 225 3 1c2.228.07 4.458.085 6.688.063l3.574-.028L578 226l1 3h-8v1l-2.312.438c-2.77.525-2.77.525-5.688 1.562l-3-3z" fill="#DBE0D8"/>
  <path d="M639 704c2 3 2 3 2 5a90 90 0 0 1-4 4l-2.25 2.25L633 717l-3-1z" fill="#334848"/>
  <path d="m262 580 2.188.5C266 581 266 581 268 582v2h-11l-1 3-1-7c2.705-1.352 4.1-.69 7 0" fill="#EEE8DC"/>
  <path d="M528 516c3.26 3.17 6.222 6.4 9 10l-5-1-1 2h-2c-.693-3.724-1.111-7.21-1-11" fill="#CCCEC5"/>
  <path d="m559 319 2 1-1 2c-.28 4.188.07 7.248 2 11l2 1-9-1-1-4h2v3h2l-1-3c-.232-2.723-.13-5.25 0-8z" fill="#D8E1DA"/>
  <path d="m917 247 2 1v8h-4l-1-3h-3c1.015-2.536 1.685-3.794 4-5.312z" fill="#E9E3D7"/>
  <path d="m862 128 10 5v3l-3.25-1c-3.747-1.172-3.747-1.172-7.75-1z" fill="#2F484E"/>
  <path d="M854 858c1.563 1.25 1.563 1.25 3 3-.423 3.17-1.665 5.22-3.562 7.75l-1.38 1.86L851 872l-2-1v-3h2l-1-3 3-2c.73-2.563.73-2.563 1-5" fill="#355252"/>
  <path d="M225 680c1.626.06 3.251.149 4.875.25l2.742.14c2.383.61 2.383.61 3.703 2.657L237 685c-3.187.813-3.187.813-7 1-2.937-2.375-2.937-2.375-5-5z" fill="#F4F6F1"/>
  <path d="M534 435h28l-1 2-3.402-.07c-7.828-.112-15.013-.136-22.598 2.07z" fill="#C2D1D0"/>
  <path d="m825 902 1 2-2 3h-2v2l-2.25-.125c-2.838.129-4.338.696-6.75 2.125 0-2 0-2 1.875-4.125C817 905 817 905 819 905v-2l4 2v-2z" fill="#D6D4C6"/>
  <path d="M878 748c2.375.313 2.375.313 5 1l2 3h-5c-.9 2.522-1.194 3.573-.062 6.063L881 760v3l-3-1c-1.333-9.41-1.333-9.41 0-14" fill="#DDD6CB"/>
  <path d="M250 696c3.728.07 7.344.234 11 1 2.188 2.563 2.188 2.563 3 5-3.51 0-5.022-.205-8.125-1.437l-2.07-.81A62 62 0 0 1 250 698z" fill="#F4F5F2"/>
  <path d="M353 278h4c2.326 3.634 2.163 6.77 2 11l-6 1 2-4 1 2h2v-5l-5 1a88 88 0 0 1-1-5z" fill="#A3BEAE"/>
  <path d="M848 875c2 2 2 2 2 5h-2l-1 3c-2.312 1.063-2.312 1.063-5 2q-2.01.98-4 2c6.15-8.446 6.15-8.446 10-12" fill="#C3C9C4"/>
  <path d="m890 849 1 4c2.33-.959 2.33-.959 4-4 3.625-.187 3.625-.187 7 0l-2 4-5-1-2 4-3-1z" fill="#E4DED2"/>
  <path d="m420 336 2 4h-2l.5 2.188c.476 2.676.577 5.101.5 7.812h-2l-1 2h-3c1.59-5.361 3.19-10.708 5-16" fill="#DAE4E7"/>
  <path d="M294 337h6l-1 4h-4v2l-2.437.375L290 344l-1 2 1-6 3-1z" fill="#8FAFA0"/>
  <path d="M485 126c1.938.087 3.876.195 5.813.313l3.269.175c3.194.56 3.882 1.133 5.918 3.512l3 1v3l-2.18-.875a681 681 0 0 0-5.39-2.125l-2.555-1-2.57-1C488 128 488 128 485 126" fill="#DEE6E4"/>
  <path d="M623 855c4.877 1.355 6.486 3.717 9 8l-3 3q-1.504-2.466-3-4.937l-1.687-2.778C623 856 623 856 623 855" fill="#33494C"/>
  <path d="M180.188 850.375 183 851v2h-2l2 7h-3c-1.687-2.5-1.687-2.5-3-5l1-1-4-2c3-2 3-2 6.188-1.625" fill="#325056"/>
  <path d="m451 815 1 2-3 5 1 2-8-1-1-3z" fill="#C9CFC3"/>
  <path d="m801 788 2 1-4 1 7 4c-2.639 1.414-5.071 2.372-8 3l-.312-1.875c-.563-2.49-.563-2.49-3.688-4.125a136 136 0 0 1 7-3" fill="#DEE4DC"/>
  <path d="M452 755c2.668.368 3.82.82 5.75 2.75 1.54 2.771 1.874 4.13 1.25 7.25-2.5 2.313-2.5 2.313-5 4l-2-2h3c1.326-3.977.348-6.099-1-10z" fill="#37514F"/>
  <path d="m583 561 3 1 1 7-4 1v-2h-2v-2l-2-1z" fill="#E7DFD4"/>
  <path d="M559 546c1.938.563 1.938.563 4 2 .912 3.86 1.261 6.216 0 10h-3v-6l-2-1z" fill="#ECE6DB"/>
  <path d="m875 822 3 1c-2.19 9.492-2.19 9.492-6 13 .412-4.97.796-9.445 3-14" fill="#CAD4C7"/>
  <path d="m736 568 3 1 1 3h2l-1 3h-3v2h-3v-2h2l-2-6zm6-1 2 1-2 2-3-2z" fill="#E6E0D4"/>
  <path d="M474 443h2c-.875 4.75-.875 4.75-2 7h-2v2c-3.981 1.327-7.85 1.07-12 1 2.332-1.256 4.535-2.175 7.063-3 3.076-.907 3.076-.907 5.937-3 .724-2.06.724-2.06 1-4" fill="#3A5050"/>
  <path d="M360 330h1c.376 6.802-.225 11.757-3 18-2.062-1.75-2.062-1.75-4-4 .25-2.25.25-2.25 1-4l2 2c2.024-3.035 2.321-4.194 2.625-7.687l.227-2.45z" fill="#A3BAAC"/>
  <path d="M816 942c1.938.625 1.938.625 4 2 .75 3.125.75 3.125 1 6l-5 2a88 88 0 0 1-1-5l1-1-3-2z" fill="#E5DFD3"/>
  <path d="M422 828c2.166 3.248 2.552 4.23 2 8-2 2.313-2 2.313-4 4l-2-5h2l-.125-2.375C420 830 420 830 422 828" fill="#D6D8CE"/>
  <path d="m827 746 2 1-3 1v3l-1.898.332-2.477.48-2.46.458c-2.523.605-2.523.605-4.165 3.73v-2l-3-1q3.682-1.795 7.375-3.562l2.117-1.038c1.809-.86 3.657-1.637 5.508-2.4" fill="#E7EEDF"/>
  <path d="M554.188 529.438c4.31.442 8.482.658 12.812.562l1 2h-20l-1-2c2.644-1.322 4.262-.89 7.188-.562" fill="#243F42"/>
  <path d="m911 416 6 1v2h-2v2h2l-1 3-5-1zm2 1 1 2Z" fill="#EBE3D8"/>
  <path d="M264 393c4.11 1.45 7.433 3.511 11 6-2.49.687-4.379 1-7 1v-2h-2l-1 2z" fill="#E9F2ED"/>
  <path d="M460 304c2.125.938 2.125.938 4 2l-2 4h-6v2l-3-1c4.75-5.875 4.75-5.875 7-7" fill="#1F4242"/>
  <path d="m824 138 7 1 1 3c-4.625 2.125-4.625 2.125-8 1v-2l-4-1h4z" fill="#2A4C51"/>
  <path d="M810 951c-.599 3.354-1.671 5.499-4 8-2.187.75-2.187.75-4 1 1.471-6.62 1.471-6.62 4-8.437 2-.563 2-.563 4-.563" fill="#E9E3D7"/>
  <path d="M442 758c2.125.938 2.125.938 4 2l-2.437 1.375c-2.652 1.372-2.652 1.372-3.563 3.625h-9q2.186-1.47 4.375-2.937l2.46-1.653C440 759 440 759 442 758" fill="#364E4C"/>
  <path d="m223 558 7 2-2 2a154 154 0 0 0-2 7l-3-1z" fill="#E3DDD1"/>
  <path d="M535 526c4.005.616 6.83 2.55 10 5 0 3 0 3-1 5-.68-.96-.68-.96-1.375-1.937-1.464-2.16-1.464-2.16-3.625-3.063l-3 1z" fill="#D8D9D1"/>
  <path d="m371 377 2 3-9 5-4-3 1-2 2.75.188c3.54-.205 4.7-.834 7.25-3.188" fill="#F1F5EE"/>
  <path d="m769 971-2.437 1.813c-2.786 1.996-2.786 1.996-3.563 5.187h-2v-3l-3 1c.625-1.875.625-1.875 2-4 3.633-1.623 5.172-2.276 9-1" fill="#F2EBDF"/>
  <path d="M189 749h1c.375 2.75.375 2.75 0 6-2.937 2.188-2.937 2.188-6 4l-1 3h-2c1.571-5.027 4.62-9.029 8-13" fill="#A2B7A8"/>
  <path d="M287 570h2c-.507 3.719-1.116 6.735-3 10h-3v2l-3 1v-3h2v-2h3l1-4h-2v-2h2z" fill="#E4DFD3"/>
  <path d="m153 516 5 5 2.75 2.688C163 526 163 526 164 528c-4.052-.623-6.89-2.375-10-5-.875-3.75-.875-3.75-1-7" fill="#E1E5E0"/>
  <path d="M184 462c1.89.648 1.89.648 4 2 1.047 2.602 1.047 2.602 1.75 5.625l.734 3.04L191 475c-1.953-.867-1.953-.867-4-2-.75-2.125-.75-2.125-1-4h-2z" fill="#2B4C4E"/>
  <path d="m374 398 2 1c-1.38 2.62-2.507 4.622-4.875 6.438-2.92.773-4.483-.117-7.125-1.438 3.125-2.524 6.313-4.397 10-6" fill="#DFEDE7"/>
  <path d="M301 361h16v2h-2l-1 2c-1.98-.28-3.96-.575-5.937-.875l-3.34-.492L302 363z" fill="#A3BAAC"/>
  <path d="m243 281 2 1-1 8-3 1-1 3c-.316-5.26.334-8.446 3-13" fill="#274648"/>
  <path d="m328 246 1 2-11 1-2 7h-1c-.312-3.312-.312-3.312 0-7 3.872-3.751 7.93-3.258 13-3" fill="#94A99D"/>
  <path d="m524 147 3 2-2 2a154 154 0 0 0-3 13l-2-1c.524-5.868 1.761-10.549 4-16" fill="#334D4B"/>
  <path d="M853.563 121.938 856 122v2l4 2-19-1v-1c.957-.09.957-.09 1.934-.184l2.504-.254c.823-.08 1.647-.162 2.496-.246 2.704-.414 2.723-1.308 5.629-1.379" fill="#F5F7F4"/>
  <path d="m445 863 5 2-1 7-4 1 .063-2.812c.095-3.21.095-3.21-1.063-6.188z" fill="#E3DDD1"/>
  <path d="M175 857c2.25.125 2.25.125 5 1 2.313 3.063 2.313 3.063 4 6-3 1-3 1-5.062.438-2.728-2.024-3.1-4.226-3.938-7.438" fill="#D3D7D1"/>
  <path d="M893 761c2.5 1.375 2.5 1.375 5 3v2h3v2c-2.312.688-2.312.688-5 1-1.812-1.125-1.812-1.125-3-3-.187-2.687-.187-2.687 0-5" fill="#E7DFD5"/>
  <path d="m484 592 7 2-1 4-9-1 1-2h2zm1 5 1 2-4 1z" fill="#EEE6DB"/>
  <path d="m557 499 1 2c2.017 1.134 2.017 1.134 4 2v1c-4.548.178-7.88-.002-12-2v-2c1.454.03 1.454.03 2.938.063 2.937.293 2.937.293 4.062-1.063" fill="#E8EDEB"/>
  <path d="m452 445 2.313 2.375c2.596 2.698 2.596 2.698 5.687 4.625l-1 3-6-1c-.7-3.153-1-5.727-1-9" fill="#E4EDED"/>
  <path d="m575 417 2 1v4c-5.365-.847-10.679-1.917-16-3v-1l2.555.035c1.095.01 2.191.018 3.32.027l3.305.036c2.772.1 2.772.1 4.82-1.098" fill="#E8F1EF"/>
  <path d="M873 135c5.571 5.143 5.571 5.143 6 9l-5-1c-.73-1.977-1.394-3.98-2-6z" fill="#334B4E"/>
  <path d="m371 922 3 1c-2.812 2.063-2.812 2.063-6 4l-3-1a240 240 0 0 0-7.187-.562l-3.856-.254L351 925v-1h20z" fill="#2D4949"/>
  <path d="M388 849h4l1 2-5 6-3-1c1.875-4.75 1.875-4.75 3-7" fill="#96BBAF"/>
  <path d="m810 788-2 1.313-2 1.687v3a85 85 0 0 1-7-2v-2a258 258 0 0 1 3.813-1.562l2.144-.88C807 787 807 787 810 788" fill="#F6F8F1"/>
  <path d="m433 766-1 3h-3l-1 6h-2v-2h-2c1.832-4.428 4.036-7 9-7" fill="#2A4644"/>
  <path d="M248 378h2c1.586 1.61 1.586 1.61 3.375 3.75 2.441 2.874 4.901 5.635 7.625 8.25l-5-1v-2l-3-1v-2h-3z" fill="#E9F3F0"/>
  <path d="M242 326h3l.184 1.934.254 2.503.246 2.497c.105 2.053.105 2.053 1.316 3.066.04 2 .043 4 0 6-2.297-2.297-2.719-3.79-3.625-6.875-.26-.864-.52-1.727-.79-2.617C242 330 242 330 242 326" fill="#E4F1EF"/>
  <path d="M581 310c3.896 3.727 3.896 3.727 4.168 7.059l.02 2.378.042 2.372C585 324 585 324 583 327c-1.206-4.672-1.094-9.215-1-14h-2z" fill="#334A4C"/>
  <path d="m745 956 2 1c.625 2.563.625 2.563 1 5h-2l-1 5c-2.762-2.762-2.579-5.207-3-9z" fill="#EAE4D8"/>
  <path d="M842 877h2c-.155 2.71-.482 4.466-2.402 6.445-1.496 1.232-3.044 2.398-4.598 3.555 0-4.225.256-5.045 3-8h2z" fill="#2D4846"/>
  <path d="M460 793h2c.967 3.122.99 5.52.563 8.75l-.31 2.422L462 806c-1.911-1.605-2.911-2.465-3.328-4.973.217-5.805.217-5.805 1.328-8.027" fill="#FBF7F0"/>
  <path d="m170 531 19 3-1 2c-6.56-.39-11.945-1.421-18-4z" fill="#CDD7D0"/>
  <path d="M225 320h2c1.262 2.525 1.099 4.312 1.063 7.125l-.028 2.758L228 332h-2c-1.262-2.525-1.099-4.312-1.062-7.125l.027-2.758z" fill="#28454A"/>
  <path d="M296 235v2c-4.622 2.219-7.768 3.383-13 3 4.45-3.728 7.174-5.157 13-5" fill="#E0F1ED"/>
  <path d="M331 908v10h-1v-8l-3.187.563c-3.384.388-5.577.32-8.813-.563v-1c4.394-.857 8.526-1.09 13-1" fill="#B8C2BC"/>
  <path d="M855 751c-.437 2.375-.437 2.375-2 5-2.941 1.07-5.906 1.573-9 2l-1-2q2.434-1.256 4.875-2.5l2.742-1.406C853 751 853 751 855 751" fill="#324E4D"/>
  <path d="m904 344 1 2 4-1v6l-4 2-2-2h2z" fill="#E5DFD3"/>
  <path d="M903 271c0 3 0 3-1.875 5.188C899 278 899 278 897 278l-1 2v-6z" fill="#DFD9CB"/>
  <path d="M842 158h2c1.305 2.61 1.113 4.527 1.098 7.445l-.01 3.262-.025 3.418-.014 3.441A2715 2715 0 0 1 845 184h-1v-23l-3-1z" fill="#E4F0F0"/>
  <path d="m538 132 2 1c-2.578 2.648-4.916 4.944-8 7l-2 3-2-2a1326 1326 0 0 1 3.875-3.937l2.18-2.215C536 133 536 133 538 132" fill="#293E3E"/>
  <path d="m421 821 4 1-2 1a178 178 0 0 0-1 6c-.633 2.01-1.29 4.015-2 6h-2l.402-1.793c.908-4.061 1.807-8.12 2.598-12.207" fill="#C1CCC9"/>
  <path d="m429 802 12 2c-4.136 2.757-8.09 3-13 3z" fill="#244040"/>
  <path d="M413 270h2a888 888 0 0 1 2.563 6.375l1.44 3.586C420 283 420 283 419 285c-3.838-3.838-5.177-9.732-6-15" fill="#3D5A5A"/>
  <path d="M287 219c-2.285 2.285-4.125 2.971-7.125 4.125l-2.758 1.07L275 225l-2-2 3-1 1-2c3.473-1.158 6.36-1.069 10-1" fill="#E6F0EC"/>
  <path d="M787 920c-1.187 2-1.187 2-3 4-2.687.25-2.687.25-5 0v-2l-3-1c7.625-2.125 7.625-2.125 11-1" fill="#CBD3CB"/>
  <path d="m855 913 1 2 3 1-1 3c-1.937.625-1.937.625-4 1l-2 1c-1-3-1-3-.187-5.125C853 914 853 914 855 913" fill="#E7E1D5"/>
  <path d="m240 766-2 4-1.672-1.457c-2.69-1.783-4.386-2.02-7.578-2.23l-2.703-.2L224 766v-1c5.835-.853 10.449-1.484 16 1" fill="#ABC0B4"/>
  <path d="M459 757h3c1.158 3.473 1.069 6.36 1 10l-5-1z" fill="#F6F8F0"/>
  <path d="M220 674c3 2 3 2 3.688 4.625L224 681c-3.46-1.25-6.147-2.675-9-5 2.313-1.125 2.313-1.125 5-2" fill="#EAEDEA"/>
  <path d="m904 464 4 2-1 7h-5l2-1z" fill="#E7E1D5"/>
  <path d="M905 417h4v6h-5v-2l-2-1 3-1z" fill="#E6E0D4"/>
  <path d="m455 386 3 1 1 3-5 1 1 4c-1.562-1.25-1.562-1.25-3-3 .27-2.974.854-3.854 3-6" fill="#264244"/>
  <path d="M629 356h2l-1 16c-1.905-3.81-2.254-5.092-2.187-9.125l.019-2.633C628 358 628 358 629 356" fill="#234243"/>
  <path d="m357 289 2 3c-1.113 1.52-1.113 1.52-3 3-2.918.074-2.918.074-6.187-.312l-3.293-.364L344 294v-1l1.828-.113c6.166-.45 6.166-.45 11.172-3.887" fill="#E4EEE3"/>
  <path d="m293 276 2 1v5h-2a91 91 0 0 0-4 4l-1-2c.996-1.945.996-1.945 2.438-4.125l1.433-2.195z" fill="#A2B9AC"/>
  <path d="M459 198c.625 1.875.625 1.875 1 4l-2 2h-3l-1 4h-2c1.394-4.435 3.606-6.874 7-10" fill="#304D4D"/>
  <path d="M766 184c4.923 4.185 4.923 4.185 5.313 8.313L771 195l-2 1-1-3 1-2h-2z" fill="#385255"/>
  <path d="M258 919c1.125 1.688 1.125 1.688 2 4-.875 2.75-.875 2.75-2 5h-3v-2l-2-1z" fill="#C5CDC6"/>
  <path d="m788 795 2 4h-14c4.18-2.786 6.934-4 12-4" fill="#DCE4DD"/>
  <path d="m794 792 4 1-1 5h-6z" fill="#F7F4F0"/>
  <path d="m439 778 2 2c-1 3-1 3-3.375 4.25C435 785 435 785 432 784z" fill="#DCE6DE"/>
  <path d="m443 770 3 3c-3.197 2.649-6.395 4.94-10 7 1.491-4.723 1.491-4.723 4.063-6.125L442 773z" fill="#2D4D4B"/>
  <path d="M812.25 754.875 814 756c-6.277 4.062-6.277 4.062-9.937 3.75L802 759c6.905-5.426 6.905-5.426 10.25-4.125" fill="#EAF2E3"/>
  <path d="M537 523h4v2l2 1a100 100 0 0 1 3 4c-4.833-.414-6.827-2.464-10-6z" fill="#2F4547"/>
  <path d="M500 472c1.43 2.354 2.087 3.48 1.625 6.25L501 480l-5 1c.53-3.821 1.497-6.062 4-9" fill="#355356"/>
  <path d="M400 282h2c.534 1.412 1.052 2.83 1.563 4.25l.878 2.39c.604 2.551.406 3.913-.441 6.36-3.094-3.094-3.937-6.552-4.125-10.875z" fill="#DCE7E6"/>
  <path d="m696 921 7.52 2.246A215 215 0 0 1 709 925l-7 1-1-2-5 1z" fill="#D8D4CA"/>
  <path d="m378 911 5 1-1 2.875c-1.102 2.896-1.102 2.896-1 5.125h-3z" fill="#DED3CA"/>
  <path d="M837 887c0 3.645-.858 5.093-3 8-2.062.875-2.062.875-4 1l-2-1z" fill="#BCC5BD"/>
  <path d="M184 865a159 159 0 0 1 6 5v2l3 1c-3 1-3 1-6 0-3-5.222-3-5.222-3-8" fill="#C6CDC8"/>
  <path d="m396 845 1 3-1 2 2 1-1 4-2-1-2 2c-.75-2.125-.75-2.125-1-5 1.938-3.312 1.938-3.312 4-6" fill="#275252"/>
  <path d="M876 750h1l1 14-2 1v-4l-4-1 4-1z" fill="#DADED4"/>
  <path d="m677 580 3 1v2a264 264 0 0 1-5 3l-1 2h-2c.337-3.12.621-4.621 2.875-6.875z" fill="#E9E3D7"/>
  <path d="M816 576h7v3h-2l-1 2-1-1-2 2c-1-1-1-1-1.062-3.562z" fill="#E8E2D6"/>
  <path d="m161 521 6 3-2 1-1 3-6-5z" fill="#324C4B"/>
  <path d="M259 387c4.872.418 6.754 2.497 10 6l3 2v2c-2.985-1.395-5.554-3.023-8.187-5l-2.106-1.562C260 389 260 389 259 387" fill="#2E4847"/>
  <path d="M474 212h9l-4 1 1 3-3 3z" fill="#E1E6E3"/>
  <path d="M771 191c2.152 3.228 2.2 4.284 2 8-4.43 2.092-4.43 2.092-7.312 1.625L764 200l2.375-1.125c3.231-2.308 3.7-4.091 4.625-7.875" fill="#E5EFEE"/>
  <path d="M619 851h2l5 10-2 2v-4h-3v-5h-2z" fill="#DFE4E0"/>
  <path d="M783 947h5l-1 5c-3 1-3 1-6 0z" fill="#E1DBCF"/>
  <path d="M407 859c1.327 3.981 1.07 7.85 1 12l-2 1v-2l-2-1q.463-2.22.938-4.437l.527-2.497C406 860 406 860 407 859" fill="#D6D4C7"/>
  <path d="m872 745 1 2c-1.622.389-3.248.76-4.875 1.125l-2.742.633L863 749l-2-2c3.83-1.802 6.781-2.196 11-2" fill="#3F5451"/>
  <path d="M346 720c2.36 2.36 2.491 3.779 3 7-2 0-2 0-3.625-1.5L344 724v2l-5-1 1-2 5-1z" fill="#8BABA4"/>
  <path d="M234 689c5.75 1.625 5.75 1.625 8 5-3 1-3 1-4.824.223L232 691z" fill="#284041"/>
  <path d="m208 672 3 2-.875 1.688c-1.166 2.397-2.159 4.828-3.125 7.312h-1v-10z" fill="#2B4E56"/>
  <path d="M288 592v2h-3v2h-2v3h-2l-1-6c2.763-.597 5.16-1 8-1" fill="#EEE6DB"/>
  <path d="M495 483c-2.938 2.503-5.179 3.47-9 4l-1-3c3.578-2.34 5.922-1.927 10-1" fill="#2E4D4E"/>
  <path d="M279 395c1.125 3.75 1.125 3.75 0 6-2.915-1.074-4.778-1.778-7-4z" fill="#30504F"/>
  <path d="m566 331 9 2-1 2h-9z" fill="#2A4744"/>
  <path d="M384 233c3.536 1.911 5.79 3.626 8 7-3.375-.547-5.082-1.055-8-3z" fill="#2A454A"/>
  <path d="M557 212h4c-1.625 7.75-1.625 7.75-5 10q-.04-2.22-.062-4.437l-.036-2.497C556 213 556 213 557 212" fill="#DBDDD6"/>
  <path d="M571 193c2.688.313 2.688.313 5 1v2l3 1-1 2-10-3z" fill="#E2E8E7"/>
  <path d="m618 184 2 1 1 3-3 1v2h-3c.75-4.75.75-4.75 3-7" fill="#344B4D"/>
  <path d="M722 925h9v3c-6.75.125-6.75.125-9-1z" fill="#C4CEC4"/>
  <path d="m895 830 2 2-7 5-1-4z" fill="#DFD9CB"/>
  <path d="M788 818c1.938 0 1.938 0 4 1 1.75 3.063 1.75 3.063 3 6-3.46-1.25-6.147-2.675-9-5z" fill="#E5E8E5"/>
  <path d="M777 809v2l2 1c-6.75 1.125-6.75 1.125-9 0v-2c3-1 3-1 7-1" fill="#F3F2F1"/>
  <path d="M263 704h9v3h-8z" fill="#F3F7F3"/>
  <path d="M671 593c1.938.375 1.938.375 4 1l1 2-1.937.875c-2.215.953-2.215.953-3.063 3.125l-3-1z" fill="#F2EADF"/>
  <path d="m692 567 5 1v2h-5zm1 3h2v2l3-1-1 3h-5z" fill="#E5DFD3"/>
  <path d="M584 439c1 3 1 3 .063 5.188L583 446h-5l2-6 1 3z" fill="#2A4E4F"/>
  <path d="M375 377c2 1 2 1 4 4l-1 2c-2.962-.613-4.38-1.254-7-3z" fill="#315156"/>
  <path d="m451 315 2 1c.73 2.314 1.401 4.648 2 7l-3 3c-1.203-2.405-1.1-3.95-1.062-6.625l.027-2.477z" fill="#253F42"/>
  <path d="M618 223c0 1.854-.017 3.709-.062 5.563-.11 2.446-.11 2.446 1.062 4.437l-4-1v-8z" fill="#344B4C"/>
  <path d="m474 214 2 1c.125 2.875.125 2.875 0 6l-2 2c-1.257-2.906-2-4.796-2-8z" fill="#2C4742"/>
  <path d="M912 186c3 1 3 1 4.188 3.063L917 191l-4 2c-1.062-2.375-1.062-2.375-2-5z" fill="#E9E1D7"/>
  <path d="m219 926 13 2v1h-8l-1 3a91 91 0 0 1-4-4z" fill="#DCDFD5"/>
  <path d="M642 880c5.785 3.323 5.785 3.323 6.875 6.75L649 889a271 271 0 0 1-3.5-2.812l-1.969-1.583C642 883 642 883 642 880" fill="#304445"/>
  <path d="M813 835c3.95.551 7.35 1.39 11 3v3c-3.791-1.45-7.387-3.152-11-5z" fill="#DCE4DF"/>
  <path d="M448 816v2c-3.402 2.094-6.053 2.18-10 2 3.041-3.498 5.447-4 10-4" fill="#254344"/>
  <path d="M760 807c3.688.498 5.605 1.1 8 4-3.053.981-4.947.981-8 0z" fill="#2C4847"/>
  <path d="M458 796h1l.375 2.75c.546 2.84 1.198 4.776 2.625 7.25l-2 2-3-1z" fill="#D4D9D5"/>
  <path d="m746 793 5 1 1 4-4 1v-2l-3-1z" fill="#F6F9EF"/>
  <path d="M172 778c1.46 2.647 2 3.894 2 7l2 1h-2v2h-2c-1.125-6.625-1.125-6.625 0-10" fill="#A2B7AC"/>
  <path d="m819 767 2 3c-3 2-3 2-6.187 1.625L812 771c2.386-1.892 4.072-3.024 7-4" fill="#32504A"/>
  <path d="m453.383 751.805 2.742.07 2.758.055L461 752l-1 3-11-1c2-2 2-2 4.383-2.195" fill="#FAF9F3"/>
  <path d="M615 744c2 2 2 2 2.313 4.438-.36 2.955-1.025 3.75-3.313 5.562-1.467-3.815-.433-6.29 1-10" fill="#374E4F"/>
  <path d="M210 672c5.415-.37 5.415-.37 8.375 1.5L220 675c-2.75.75-2.75.75-6 1-2.375-1.937-2.375-1.937-4-4" fill="#F3F3F4"/>
  <path d="M707 662c-4.503 3.002-8.578 4.319-14 4 3.635-5.287 8.204-4.398 14-4" fill="#E5EDE7"/>
  <path d="m331 575 2 2-2 5-5-2v-2h2v-2z" fill="#E7E1D5"/>
  <path d="m224 573 3 2v2l3 1-2 1-2-1 1 3h-3c-.8-3.287-1.097-4.71 0-8" fill="#EAE4D8"/>
  <path d="M503 567c4 0 4 0 5.75 1.313C510 570 510 570 510 573l-7-1z" fill="#E5DFD3"/>
  <path d="M841 489c-.398 2.886-.79 3.822-3.062 5.75L836 496l-2-2c4.75-5 4.75-5 7-5" fill="#EAF3EF"/>
  <path d="M453 432c1.62 2.572 2.044 3.677 1.625 6.75L454 441h-2l-1 2a293 293 0 0 1-.125-4.375l-.07-2.46C451 434 451 434 453 432" fill="#2D4B52"/>
  <path d="M399 348c1 4 1 4 .223 5.922L396 359l-3-1z" fill="#294444"/>
  <path d="m540 154 2 1v2a197 197 0 0 1-5 3c-1.751 1.582-1.751 1.582-3 3 1.161-4.355 2.077-6.646 6-9" fill="#E4EBED"/>
  <path d="m710 923 9 1-5 4-2-1v-2h-2z" fill="#CBD4CB"/>
  <path d="m323 891 2 2-8 1v-2l-2-1c2.907-1.454 4.896-.711 8 0" fill="#88AEA4"/>
  <path d="M394 876c0 3.106-.54 4.353-2 7h-4c.188-1.812.188-1.812 1-4 2.563-1.75 2.563-1.75 5-3" fill="#D1D2CD"/>
  <path d="M841 851v3h-6v-3c2.49-1.245 3.41-.777 6 0" fill="#264145"/>
  <path d="m768 803-1 4-5-1v-3c3-1 3-1 6 0" fill="#FDF5F1"/>
  <path d="M771 785c2.125.938 2.125.938 4 2-5.75 4-5.75 4-8 4 1.75-4.875 1.75-4.875 4-6" fill="#EEF2EC"/>
  <path d="m460 754 2 2c-.375 2.625-.375 2.625-1 5-3.736-1.245-4.188-2.634-6-6 2.375-.625 2.375-.625 5-1" fill="#EDEBE9"/>
  <path d="M389 736c3.489 1.163 4.1 2.14 6.188 5.063l1.605 2.222L398 745c-3 0-3 0-5.625-2.25-2.14-2.479-3.023-3.586-3.375-6.75" fill="#A1B1A5"/>
  <path d="M213 676c5.75 1.625 5.75 1.625 8 5l-4 1-2-3-3-2z" fill="#213E3F"/>
  <path d="M861.188 531.938 863 533h-2l-1 3h-4v-4c3-1 3-1 5.188-.062" fill="#C7D3C3"/>
  <path d="M474 436h6l-.937 1.688c-1.12 2.437-1.623 4.674-2.063 7.312h-1z" fill="#D9DDD9"/>
  <path d="m227 333 2 1c.633 2.066.633 2.066 1.125 4.563l.508 2.503L231 343l-2 1c-1.423-3.823-2.24-6.913-2-11" fill="#214144"/>
  <path d="M565 219h1v8l-5-3 2-4 1 1z" fill="#2D4C51"/>
  <path d="M579 196c2.125.375 2.125.375 4 1h-2v2l2 1-2 3-4-5z" fill="#EEF2F1"/>
  <path d="M496 152c3 1 3 1 4.688 4.063L502 159h-2l-1 2v-4h-2z" fill="#E1EAE9"/>
  <path d="M543 149a858 858 0 0 1-2.937 3.5l-1.653 1.969L537 156h-1c.256-2.343.593-4.678 1-7 2.49-1.245 3.41-.777 6 0" fill="#1F4040"/>
  <path d="M489 146c2.884 1.293 4.872 2.66 7 5-1.812.625-1.812.625-4 1l-3-2z" fill="#E3EEEB"/>
  <path d="M203 145q-2.186 1.47-4.375 2.938l-2.46 1.652C194 151 194 151 192 152l1-4 4-1v-2c2.49-1.245 3.41-.777 6 0" fill="#385050"/>
  <path d="m688 916 10 3v1h-8z" fill="#BCCDC7"/>
  <path d="m873 894 2 3-4 2v-2l-4 2-1-3z" fill="#E4DED2"/>
  <path d="m390 854 1 3-1 2h-2l-1 3c-2.062.688-2.062.688-4 1q1.467-1.97 2.938-3.937l1.652-2.215C389 855 389 855 390 854" fill="#305854"/>
  <path d="m171 831 2 1v2l2 2-1 1 3 2h-6z" fill="#99BDB6"/>
  <path d="M835 776c6.75.75 6.75.75 9 3-2.354 1.43-3.48 2.087-6.25 1.625L836 780l3-1z" fill="#F6F8EF"/>
  <path d="m842 757-2 5-6-1c5.217-4 5.217-4 8-4" fill="#35514D"/>
  <path d="M203 734c1.46 2.647 2 3.894 2 7h-2l-2 1v-2l-2-1 4-2z" fill="#A2B8AD"/>
  <path d="M639 704c2 3 2 3 2 5-1.375 1.625-1.375 1.625-3 3h-2l-1-3c1.938-2.687 1.938-2.687 4-5" fill="#3E5557"/>
  <path d="M649.688 583.313 652 584c-3.625 4.875-3.625 4.875-7 6-.687-1.812-.687-1.812-1-4 1.714-2.762 2.426-3.067 5.688-2.687" fill="#E9E3D7"/>
  <path d="m262 580-1 2h-4v2h-2v-4c2.667-1.333 4.167-.671 7 0" fill="#E8E2D6"/>
  <path d="m497 527 2 1c-1.562 2-1.562 2-4 4-3.75.25-3.75.25-7 0 2.678-2.678 5.48-3.68 9-5" fill="#BCC8BF"/>
  <path d="m461 418 7 1c-2.937 1.523-5.917 2.801-9 4v-3h2z" fill="#E4EEEB"/>
  <path d="M288 402h3v2h5c-1.187 1.563-1.187 1.563-3 3-2.687-.312-2.687-.312-5-1z" fill="#335354"/>
  <path d="m348 392-1 4-11-1v-1q2.438-.503 4.875-1l2.742-.562C346 392 346 392 348 392" fill="#355552"/>
  <path d="M250 376h2c1.688 2.313 1.688 2.313 3 5l-1 3-5-6z" fill="#324E4F"/>
  <path d="M274 377c3.375.547 5.082 1.055 8 3h-2v2c-2.437-.812-2.437-.812-5-2z" fill="#ECF4F4"/>
  <path d="M264 371c2.884 1.293 4.872 2.66 7 5l-1 2-2-2a104 104 0 0 0-5-2z" fill="#244345"/>
  <path d="M241 328c2.398 2.398 2.343 3.333 2.625 6.625l.227 2.477L244 339l-3-2c-.293-2.164-.293-2.164-.187-4.625l.082-2.477z" fill="#28474A"/>
  <path d="M561 295c1.938.75 1.938.75 4 2 .75 2.125.75 2.125 1 4h-4v-2l-2-1z" fill="#8FAE9E"/>
  <path d="M706 293v2l4 2c-2.915 0-5.342-.409-8.187-1l-2.731-.562L697 295v-1c3.153-.7 5.727-1 9-1" fill="#EEF8F4"/>
  <path d="m366 234-3 2 3 3c-2.375-.25-2.375-.25-5-1-1.312-2.062-1.312-2.062-2-4 3.133-1.044 3.99-.934 7 0" fill="#214446"/>
  <path d="m358 218-1 4-8 1c4.677-5 4.677-5 9-5" fill="#1D4548"/>
  <path d="M161 133h2l-2 6h-4c1.152-2.468 2.048-4.048 4-6" fill="#254142"/>
  <path d="M673 905c1.875.313 1.875.313 4 1l2 3c-1.812.688-1.812.688-4 1-1.75-1.437-1.75-1.437-3-3z" fill="#365150"/>
  <path d="M790 824c3.375.547 5.082 1.055 8 3v2c-2.875-.25-2.875-.25-6-1-1.375-2.062-1.375-2.062-2-4" fill="#283C3F"/>
  <path d="M442 792h2c.977 6.055.977 6.055 1 8l-2 2c-1-1-1-1-1.098-3.066l.036-2.496.027-2.504z" fill="#2F4545"/>
  <path d="M801 784h9c-2.36 2.097-3.546 2.97-6.75 3.188L801 787z" fill="#1A4042"/>
  <path d="m422 772 2 1-4 7h-2c.498-3.688 1.1-5.605 4-8" fill="#3B4F4F"/>
  <path d="M858 725h3v5l-6 1z" fill="#9FB8A6"/>
  <path d="m633 705 5 1a250 250 0 0 1-4 6h-1z" fill="#E9ECE6"/>
  <path d="M332.125 705.938c1.087.291 1.087.291 2.195.59L336 707v1c-6.055.195-6.055.195-8 0l-2-2c2.547-1.274 3.428-.802 6.125-.062M335 705h2l-1 2z" fill="#F8F9F2"/>
  <path d="m240 688 1 2c2.025.652 2.025.652 4 1l-1 3-6-3v-2z" fill="#E7ECE8"/>
  <path d="M855 576v2h-3l1 4-5-1c1.353-4.059 2.725-5 7-5" fill="#EAE4D8"/>
  <path d="M487 533c-1.312 1.5-1.312 1.5-3 3h-3l-2 1c.375-1.937.375-1.937 1-4 2.667-1.333 4.167-.671 7 0" fill="#C9D0C2"/>
  <path d="M487 485c-1.113 1.52-1.113 1.52-3 3-2.918.074-2.918.074-6.187-.312l-3.293-.364L472 487v-1q2.343-.255 4.688-.5l2.636-.281c2.573-.21 5.096-.256 7.676-.219" fill="#203E40"/>
  <path d="m659 448 2 4-4 3-2-1c2.875-4.875 2.875-4.875 4-6" fill="#E9F2EE"/>
  <path d="m478 449 1 3-2 3-5-5c2-1 2-1 6-1" fill="#F2F3EA"/>
  <path d="m474 322 3 1v5l-4 1z" fill="#35494A"/>
  <path d="M338.25 321.875 340 323l-1 2c-3.106 0-4.353-.54-7-2 3.446-2.215 3.446-2.215 6.25-1.125" fill="#A2B6AB"/>
  <path d="M386 253c2.667 2.49 4.557 4.634 6 8h-3c-2.108-2.888-3-4.385-3-8" fill="#344E51"/>
  <path d="m302 215-1 4c-2.867-.573-3.861-.861-6-3 2.49-.687 4.379-1 7-1m-7 4 3 1Z" fill="#325151"/>
  <path d="m782 207 2 1-2 2a89 89 0 0 0-2 4l-1-1-2 2c.35-3.242.562-4.615 3.063-6.812z" fill="#EAF0EB"/>
  <path d="M842 153h3l2 6-3 1c-1.46-2.647-2-3.894-2-7" fill="#314C4E"/>
  <path d="m198 147 3 4-4 2-1-2-2-1z" fill="#EDF5F3"/>
  <path d="m794 916-2 5-6-2c6-3 6-3 8-3" fill="#C2D0C8"/>
  <path d="M380 883c2.25.25 2.25.25 4 1-2.312 2.063-2.312 2.063-5 4l-3-1c1.75-2.062 1.75-2.062 4-4" fill="#304A49"/>
  <path d="M877 877h2l.875 2.438c.858 2.695.858 2.695 3.125 3.562l-4 2v-3l-2-1z" fill="#E4DED2"/>
  <path d="M200 880c2.875.688 2.875.688 6 2 1.375 2.625 1.375 2.625 2 5a962 962 0 0 1-4-2.937l-2.25-1.653L200 881z" fill="#3C5352"/>
  <path d="M819 843h8l1 3c-3.796 0-5.629-.502-9-2z" fill="#234043"/>
  <path d="M741 797c5.75.875 5.75.875 8 2v2h-5v-2l-3-1z" fill="#224241"/>
  <path d="M168 786h4v2h3l-1 4h-3v-5z" fill="#88ACA3"/>
  <path d="m834 777-1 3c-1.937.75-1.937.75-4 1l-2-1v-2c2.463-1.231 4.28-1.072 7-1" fill="#DBEBE4"/>
  <path d="M783.313 768.313 785 769l-6 4-3-2c4.43-3.077 4.43-3.077 7.313-2.687" fill="#E7EDE0"/>
  <path d="m855 768-1 3-10 1c3.673-2.448 6.546-4 11-4" fill="#C4D4CD"/>
  <path d="M403 752c2.34 2.128 3.707 4.116 5 7l-4 1c-.976-2.928-1.082-4.956-1-8" fill="#A1B4A8"/>
  <path d="M399 744h2c2.188 2.813 2.188 2.813 4 6l-1 3a466 466 0 0 1-2.5-3.375l-1.406-1.898C399 746 399 746 399 744" fill="#F4F9ED"/>
  <path d="m345 705 .875 1.813c1.172 2.38 1.172 2.38 3.125 5.187l-4-1v-2l-4-1 4-1z" fill="#FAF6F0"/>
  <path d="M836 696c1.75.125 1.75.125 4 1 2.25 3.063 2.25 3.063 4 6-2.95-1.37-5.525-2.878-8-5z" fill="#A2B1A5"/>
  <path d="m672 674 3 2-9 5v-3c3-2.187 3-2.187 6-4" fill="#E4ECE6"/>
  <path d="M711 568h3v9l-2 1a544 544 0 0 1-1.062-4.437l-.598-2.497L710 569z" fill="#E3DDD1"/>
  <path d="m617 566 5 2v2h-2l-1 3c-1.46-2.647-2-3.894-2-7" fill="#E2DCD0"/>
  <path d="m861 531 6 1 1 3-6 1z" fill="#D5DCCD"/>
  <path d="m579 426 3 3-2 3-4-2 1-3z" fill="#2D4C51"/>
  <path d="m402 332 2 1-2 9h-1q-.04-2.22-.062-4.437l-.036-2.497C401 333 401 333 402 332" fill="#E6EFEC"/>
  <path d="M403 322h2c.841 4.018 1.054 7.018 0 11h-1z" fill="#D8E4E3"/>
  <path d="m559 319 2 1-1 2a62 62 0 0 0-.062 4.125L560 330l-3-1c-.195-6.055-.195-6.055 0-8z" fill="#C7D1C9"/>
  <path d="m908 316 1 2c2.025.652 2.025.652 4 1l-4 3-3-3z" fill="#E6E0D4"/>
  <path d="m450 311 3 1-2 10h-1q-.29-2.468-.562-4.937l-.317-2.778L449 312z" fill="#D8E1DE"/>
  <path d="m457 304 3 1-2.375 1.875c-2.593 2.024-2.593 2.024-4.625 4.125l-1-5 3 1v-2z" fill="#E4E9E6"/>
  <path d="m254 262 3 1a125 125 0 0 1-4 6h-2c.75-4.75.75-4.75 3-7" fill="#253E43"/>
  <path d="M578 217h6l-2 5c-2-1.375-2-1.375-4-3z" fill="#2C4E4E"/>
  <path d="M450 211h1l3 12-3-1c-1.283-3.85-1.066-6.947-1-11" fill="#CBD6D8"/>
  <path d="M332 912h3l-1 8h-2z" fill="#243E41"/>
  <path d="M312 910h11l-1 2c-3.992 1.33-6.263.815-10-1z" fill="#C7D4CB"/>
  <path d="M829 892v3c-4.343 4-4.343 4-7 4v-2l1.938-.312L826 896l1-3z" fill="#2C433F"/>
  <path d="m386 883 6 2-1 3-2-1-3 1-1-3z" fill="#D6D3C6"/>
  <path d="M203 884c2.468 1.152 4.048 2.048 6 4h-8z" fill="#D2DBD3"/>
  <path d="m452 809 2 4a91 91 0 0 1-4 4h-2v-2h2l.438-2.437C451 810 451 810 452 809" fill="#37504F"/>
  <path d="M800 788c-2.55 2.354-3.71 2.983-7.25 3.188L790 791c3.318-3.063 5.552-3.303 10-3" fill="#1C4341"/>
  <path d="M782 786v2c-2.312.625-2.312.625-5 1l-3-2c3.067-1.862 4.597-2.215 8-1" fill="#385051"/>
  <path d="m770 770 3 1-1 3c-3.062 1.188-3.062 1.188-6 2z" fill="#9FB6A8"/>
  <path d="M609 770c2 3 2 3 1.625 6.188L610 779c-2.148-3.222-2.294-4.278-2-8z" fill="#304C4F"/>
  <path d="m793 762 2 1-2 4-6-1c1.974-1.974 3.437-2.959 6-4" fill="#E7EEDF"/>
  <path d="m836 761 1 3c-4.75 1.125-4.75 1.125-7 0v-2c2-1 2-1 6-1" fill="#264845"/>
  <path d="M383 730h5v2h2l-1 4a318 318 0 0 1-6-5z" fill="#E7F1E4"/>
  <path d="m621 724 4 1-3 6c-2-3-2-3-1.625-5.187z" fill="#EAE9E4"/>
  <path d="m232 722-1 4h-7c5.217-4 5.217-4 8-4" fill="#88AEA7"/>
  <path d="m362 714 6 1-1 3h-5z" fill="#F5F8F0"/>
  <path d="m643 696 3 1-5 5c0-4 0-4 2-6" fill="#EFF4EF"/>
  <path d="m740 660 3 1c-1.75 4.875-1.75 4.875-4 6-.043-2-.04-4 0-6z" fill="#F8F8F4"/>
  <path d="m504 573 3 4-3 3-2-1v-4h2z" fill="#EBE5D9"/>
  <path d="m281 568 3 1-1 3-3 1-1 2h-2c1.074-2.915 1.778-4.778 4-7" fill="#DEDACF"/>
  <path d="m879 560 2 1c-.7 3.147-1.76 6.026-3 9-1.546-3.092-.603-5.685 0-9z" fill="#E6E0D4"/>
  <path d="M360 387h4v2l3 1c-1.75.688-1.75.688-4 1-2.25-1.437-2.25-1.437-4-3zm0 3 2 1Z" fill="#1C454A"/>
  <path d="m251 349 2 4h2l1 4-2 1-4-8z" fill="#E6EEEF"/>
  <path d="m254 270 1 3-5 4-1-3c2-3 2-3 5-4" fill="#ECEDF5"/>
  <path d="m237 257 3 2-4 5-2-4h2z" fill="#EBEFEC"/>
  <path d="M372 222c2.915 1.074 4.778 1.778 7 4l-2 2a105 105 0 0 1-5-4z" fill="#E6F2F2"/>
  <path d="m620 184 12 1v1l-12 1z" fill="#264447"/>
  <path d="m515 157 3 2-1 7c-2-2-2-2-2.125-5.625z" fill="#34474F"/>
  <path d="m492 129 5 2-1 2a109 109 0 0 1-7-1l-1-2 4 1z" fill="#243D41"/>
  <path d="M552 128c-1.375 1.5-1.375 1.5-3 3h-2v-2l-2-1c3.133-1.044 3.99-.934 7 0m-8 3 3 1Z" fill="#355251"/>
  <path d="M333 925c3.375.547 5.082 1.055 8 3-3.766 1.255-5.372.37-9-1z" fill="#CCD5C9"/>
  <path d="m196 872 1 3h2l-2 4-3-4z" fill="#3F5656"/>
  <path d="m397 868 1 3-4 3-1-3c1-2 1-2 4-3" fill="#2D4948"/>
  <path d="m897 866 3 1a91 91 0 0 1-4 4h-2c.375-1.937.375-1.937 1-4z" fill="#EAE2D6"/>
  <path d="M149 857h12v1c-4.085.545-7.873 1-12 1z" fill="#DAD9CD"/>
  <path d="m841 851 9 4c-3.766 1.255-5.372.37-9-1z" fill="#374B4C"/>
  <path d="M800 830c5.75.75 5.75.75 8 3-3.766 1.255-5.372.37-9-1z" fill="#243F40"/>
  <path d="m832 781 1 3-6 1-1-3c2.076-.553 3.844-1 6-1" fill="#F6F4E9"/>
  <path d="m879 765 1 2 2 1h-2l-1 4c-2-3-2-3-2-6z" fill="#D7D5C9"/>
  <path d="M256 702c4.875 1.75 4.875 1.75 6 4l-6 1z" fill="#284041"/>
  <path d="m440 578 4 1-1 4-3-1z" fill="#E9E3D7"/>
  <path d="m505 520 3 2c-2.312 2.063-2.312 2.063-5 4l-3-1 1.938-.812c2.393-1.075 2.393-1.075 3.062-4.188" fill="#B9C4BE"/>
  <path d="m563 452 11 1v1c-5.345 1.665-5.345 1.665-8 2-2-1.312-2-1.312-3-3z" fill="#EFF5EB"/>
  <path d="M477 443h2c.188 2.375.188 2.375 0 5l-3 2-2-2c1.375-2.5 1.375-2.5 3-5" fill="#E7EAE3"/>
  <path d="m584 442 3 1v4h-3l-1 2-2-1z" fill="#E1E6E4"/>
  <path d="m581 326 2 1c-1.75 3.875-1.75 3.875-4 5l-2-2z" fill="#324D51"/>
  <path d="m461 300 8 1v1l-9 1z" fill="#F0F5EE"/>
  <path d="m410 262 5 2v6c-2.011-2.56-3.628-5.046-5-8" fill="#E6EEEE"/>
  <path d="m897 210 4 2-5 4a100 100 0 0 1 0-5z" fill="#DFD9CD"/>
  <path d="M881 147c2.762 2.762 2.579 5.207 3 9-2.062-2.25-2.062-2.25-4-5 .25-2.312.25-2.312 1-4" fill="#425253"/>
</svg>
